# Blender v2.78 (sub 0) OBJ File: 'round.blend'
# www.blender.org
mtllib round.mtl
o Cylinder
v -0.396413 -0.405876 -0.610810
v -0.396413 6.868548 1.402678
v -0.305990 -0.405876 -0.601904
v -0.698802 6.868548 1.372895
v -0.219041 -0.405876 -0.575528
v -0.989570 6.868548 1.284692
v -0.138909 -0.405876 -0.532697
v -1.257543 6.868548 1.141457
v -0.068673 -0.405876 -0.475055
v -1.492424 6.868548 0.948696
v -0.011031 -0.405876 -0.404819
v -1.685186 6.868548 0.713815
v 0.031800 -0.405876 -0.324687
v -1.828420 6.868548 0.445841
v 0.058175 -0.405876 -0.237739
v -1.916624 6.868548 0.155073
v 0.067081 -0.405876 -0.147315
v -1.946407 6.868548 -0.147316
v 0.058176 -0.405876 -0.056892
v -1.916624 6.868548 -0.449705
v 0.031800 -0.405876 0.030056
v -1.828421 6.868548 -0.740473
v -0.011031 -0.405876 0.110188
v -1.685186 6.868548 -1.008446
v -0.068673 -0.405876 0.180425
v -1.492424 6.868548 -1.243327
v -0.138909 -0.405876 0.238066
v -1.257543 6.868548 -1.436089
v -0.219041 -0.405876 0.280898
v -0.989569 6.868548 -1.579324
v -0.305990 -0.405876 0.307273
v -0.698801 6.868548 -1.667527
v -0.396413 -0.405876 0.316179
v -0.396412 6.868548 -1.697310
v -0.486836 -0.405876 0.307273
v -0.094023 6.868548 -1.667527
v -0.573785 -0.405876 0.280898
v 0.196745 6.868548 -1.579323
v -0.653917 -0.405876 0.238066
v 0.464719 6.868548 -1.436088
v -0.724153 -0.405876 0.180425
v 0.699599 6.868548 -1.243326
v -0.781795 -0.405876 0.110188
v 0.892361 6.868548 -1.008446
v -0.824626 -0.405876 0.030056
v 1.035596 6.868548 -0.740472
v -0.851001 -0.405876 -0.056892
v 1.123799 6.868548 -0.449703
v -0.859907 -0.405876 -0.147316
v 1.153581 6.868548 -0.147314
v -0.851001 -0.405876 -0.237739
v 1.123798 6.868548 0.155075
v -0.824626 -0.405876 -0.324687
v 1.035594 6.868548 0.445843
v -0.781794 -0.405876 -0.404819
v 0.892359 6.868548 0.713816
v -0.724152 -0.405876 -0.475056
v 0.699597 6.868548 0.948697
v -0.653916 -0.405876 -0.532697
v 0.464716 6.868548 1.141458
v -0.573784 -0.405876 -0.575528
v 0.196742 6.868548 1.284693
v -0.486835 -0.405876 -0.601904
v -0.094026 6.868548 1.372896
v -0.698802 1.455624 1.372895
v -0.396413 1.455624 1.402678
v -0.989570 1.455624 1.284692
v -1.257543 1.455624 1.141457
v -1.492424 1.455624 0.948696
v -1.685186 1.455624 0.713815
v -1.828420 1.455624 0.445841
v -1.916624 1.455624 0.155073
v -1.946407 1.455624 -0.147316
v -1.916624 1.455624 -0.449705
v -1.828421 1.455624 -0.740473
v -1.685186 1.455624 -1.008446
v -1.492424 1.455624 -1.243327
v -1.257543 1.455624 -1.436089
v -0.989569 1.455624 -1.579324
v -0.698801 1.455624 -1.667527
v -0.396412 1.455624 -1.697310
v -0.094023 1.455624 -1.667527
v 0.196745 1.455624 -1.579323
v 0.464719 1.455624 -1.436088
v 0.699599 1.455624 -1.243326
v 0.892361 1.455624 -1.008446
v 1.035596 1.455624 -0.740472
v 1.123799 1.455624 -0.449703
v 1.153581 1.455624 -0.147314
v 1.123798 1.455624 0.155075
v 1.035594 1.455624 0.445843
v 0.892359 1.455624 0.713816
v 0.699597 1.455624 0.948697
v 0.464716 1.455624 1.141458
v 0.196742 1.455624 1.284693
v -0.094026 1.455624 1.372896
vn -0.0945 -0.2656 0.9595
vn -0.2799 -0.2656 0.9226
vn -0.4545 -0.2656 0.8503
vn -0.6116 -0.2656 0.7453
vn -0.7453 -0.2656 0.6116
vn -0.8503 -0.2656 0.4545
vn -0.9226 -0.2656 0.2799
vn -0.9595 -0.2656 0.0945
vn -0.9595 -0.2656 -0.0945
vn -0.9226 -0.2656 -0.2799
vn -0.8503 -0.2656 -0.4545
vn -0.7453 -0.2656 -0.6116
vn -0.6116 -0.2656 -0.7453
vn -0.4545 -0.2656 -0.8503
vn -0.2799 -0.2656 -0.9226
vn -0.0945 -0.2656 -0.9595
vn 0.0945 -0.2656 -0.9595
vn 0.2799 -0.2656 -0.9226
vn 0.4545 -0.2656 -0.8503
vn 0.6116 -0.2656 -0.7453
vn 0.7453 -0.2656 -0.6116
vn 0.8503 -0.2656 -0.4545
vn 0.9226 -0.2656 -0.2799
vn 0.9595 -0.2656 -0.0945
vn 0.9594 -0.2656 0.0945
vn 0.9226 -0.2656 0.2799
vn 0.8503 -0.2656 0.4545
vn 0.7453 -0.2656 0.6116
vn 0.6116 -0.2656 0.7453
vn 0.4545 -0.2656 0.8503
vn -0.7730 0.0000 -0.6344
vn 0.2799 -0.2656 0.9226
vn 0.0945 -0.2656 0.9595
vn 0.0000 -1.0000 -0.0000
vn 0.0000 1.0000 -0.0000
vn 0.8819 0.0000 -0.4714
vn 0.2903 0.0000 0.9569
vn -0.9952 0.0000 0.0980
vn 0.2903 0.0000 -0.9569
vn 0.8819 0.0000 0.4714
vn -0.6344 0.0000 0.7730
vn -0.6344 0.0000 -0.7730
vn 0.9569 0.0000 -0.2903
vn 0.0980 0.0000 0.9952
vn -0.9952 0.0000 -0.0980
vn 0.4714 0.0000 -0.8819
vn 0.7730 0.0000 0.6344
vn -0.7730 0.0000 0.6344
vn -0.4714 0.0000 -0.8819
vn 0.9952 0.0000 -0.0980
vn -0.0980 0.0000 0.9952
vn -0.9569 0.0000 -0.2903
vn 0.6344 0.0000 -0.7730
vn 0.6344 0.0000 0.7730
vn -0.8819 0.0000 0.4714
vn -0.2903 0.0000 -0.9569
vn 0.9952 0.0000 0.0980
vn -0.2903 0.0000 0.9569
vn -0.8819 0.0000 -0.4714
vn 0.7730 0.0000 -0.6344
vn 0.4714 0.0000 0.8819
vn -0.9569 0.0000 0.2903
vn 0.0980 0.0000 -0.9952
vn -0.0980 0.0000 -0.9952
vn 0.9569 0.0000 0.2903
vn -0.4714 0.0000 0.8819
usemtl None
s off
f 1//1 2//1 4//1 3//1
f 3//2 4//2 6//2 5//2
f 5//3 6//3 8//3 7//3
f 7//4 8//4 10//4 9//4
f 9//5 10//5 12//5 11//5
f 11//6 12//6 14//6 13//6
f 13//7 14//7 16//7 15//7
f 15//8 16//8 18//8 17//8
f 17//9 18//9 20//9 19//9
f 19//10 20//10 22//10 21//10
f 21//11 22//11 24//11 23//11
f 23//12 24//12 26//12 25//12
f 25//13 26//13 28//13 27//13
f 27//14 28//14 30//14 29//14
f 29//15 30//15 32//15 31//15
f 31//16 32//16 34//16 33//16
f 33//17 34//17 36//17 35//17
f 35//18 36//18 38//18 37//18
f 37//19 38//19 40//19 39//19
f 39//20 40//20 42//20 41//20
f 41//21 42//21 44//21 43//21
f 43//22 44//22 46//22 45//22
f 45//23 46//23 48//23 47//23
f 47//24 48//24 50//24 49//24
f 49//25 50//25 52//25 51//25
f 51//26 52//26 54//26 53//26
f 53//27 54//27 56//27 55//27
f 55//28 56//28 58//28 57//28
f 57//29 58//29 60//29 59//29
f 59//30 60//30 62//30 61//30
f 58//31 56//31 92//31 93//31
f 61//32 62//32 64//32 63//32
f 63//33 64//33 2//33 1//33
f 1//34 3//34 5//34 7//34 9//34 11//34 13//34 15//34 17//34 19//34 21//34 23//34 25//34 27//34 29//34 31//34 33//34 35//34 37//34 39//34 41//34 43//34 45//34 47//34 49//34 51//34 53//34 55//34 57//34 59//34 61//34 63//34
f 65//35 66//35 96//35 95//35 94//35 93//35 92//35 91//35 90//35 89//35 88//35 87//35 86//35 85//35 84//35 83//35 82//35 81//35 80//35 79//35 78//35 77//35 76//35 75//35 74//35 73//35 72//35 71//35 70//35 69//35 68//35 67//35
f 14//36 12//36 70//36 71//36
f 32//37 30//37 79//37 80//37
f 50//38 48//38 88//38 89//38
f 6//39 4//39 65//39 67//39
f 24//40 22//40 75//40 76//40
f 42//41 40//41 84//41 85//41
f 60//42 58//42 93//42 94//42
f 16//43 14//43 71//43 72//43
f 34//44 32//44 80//44 81//44
f 52//45 50//45 89//45 90//45
f 8//46 6//46 67//46 68//46
f 26//47 24//47 76//47 77//47
f 44//48 42//48 85//48 86//48
f 62//49 60//49 94//49 95//49
f 18//50 16//50 72//50 73//50
f 36//51 34//51 81//51 82//51
f 54//52 52//52 90//52 91//52
f 10//53 8//53 68//53 69//53
f 28//54 26//54 77//54 78//54
f 46//55 44//55 86//55 87//55
f 64//56 62//56 95//56 96//56
f 20//57 18//57 73//57 74//57
f 38//58 36//58 82//58 83//58
f 56//59 54//59 91//59 92//59
f 12//60 10//60 69//60 70//60
f 30//61 28//61 78//61 79//61
f 48//62 46//62 87//62 88//62
f 4//63 2//63 66//63 65//63
f 2//64 64//64 96//64 66//64
f 22//65 20//65 74//65 75//65
f 40//66 38//66 83//66 84//66
