<?xml version="1.0" standalone="no"?>
<!DOCTYPE svg PUBLIC "-//W3C//DTD SVG 1.1//EN" "http://www.w3.org/Graphics/SVG/1.1/DTD/svg11.dtd" >
<svg xmlns="http://www.w3.org/2000/svg">
<metadata></metadata>
<defs>
<font id="nuon_matthewlight" horiz-adv-x="1085" >
<font-face units-per-em="2048" ascent="1520" descent="-528" />
<missing-glyph horiz-adv-x="450" />
<glyph unicode="&#xfb01;" horiz-adv-x="1089" d="M47 1012q0 8 1 21.5t5 21.5l185 12v35q0 111 22.5 188.5t85.5 141.5q45 45 108.5 66.5t139.5 21.5q41 0 81 -8.5t68 -18.5q6 -16 7 -39q0 -10 -1 -24.5t-6 -22.5q-23 6 -59.5 11t-69.5 5q-117 0 -174 -63q-45 -47 -57 -111.5t-12 -146.5v-35h571v-1067q-31 -10 -68 -10 q-35 0 -65 10v963h-438v-963q-31 -10 -66 -10q-37 0 -67 10v963h-185q-4 8 -5 23t-1 26z" />
<glyph unicode="&#xfb02;" horiz-adv-x="1150" d="M47 1012q0 8 1 21.5t5 21.5l185 12v35q0 111 22.5 188.5t85.5 141.5q45 45 108.5 66.5t139.5 21.5q41 0 81 -8.5t68 -18.5q7 -16 7 -39q0 -10 -1 -24.5t-6 -22.5q-23 6 -59.5 11t-69.5 5q-117 0 -174 -63q-45 -47 -57 -111.5t-12 -146.5v-35h288q4 -8 6.5 -23.5 t2.5 -25.5q0 -12 -2 -28.5t-7 -26.5h-288v-963q-31 -10 -66 -10q-37 0 -67 10v963h-185q-4 8 -5 23t-1 26zM874 0v1495q14 4 30.5 7t37.5 3q35 0 65 -10v-1495q-37 -10 -69 -10q-33 0 -64 10z" />
<glyph unicode="&#xfb03;" horiz-adv-x="1695" d="M47 1012q0 8 1 21.5t5 21.5l185 12v35q0 111 22.5 188.5t85.5 141.5q45 45 108.5 66.5t139.5 21.5q41 0 81 -8.5t68 -18.5q6 -16 7 -39q0 -10 -1 -24.5t-6 -22.5q-23 6 -59.5 11t-69.5 5q-117 0 -174 -63q-45 -47 -57 -111.5t-12 -146.5v-35h473v35q0 111 22.5 188.5 t85.5 141.5q45 45 108.5 66.5t139.5 21.5q41 0 81 -8.5t69 -18.5q6 -16 6 -39q0 -10 -1 -24.5t-5 -22.5q-23 6 -60 11t-69 5q-117 0 -174 -63q-45 -47 -57.5 -111.5t-12.5 -146.5v-35h571v-1067q-31 -10 -67 -10q-35 0 -66 10v963h-438v-963q-31 -10 -66 -10q-37 0 -67 10 v963h-473v-963q-31 -10 -66 -10q-37 0 -67 10v963h-185q-4 8 -5 23t-1 26z" />
<glyph unicode="&#xfb04;" horiz-adv-x="1757" d="M47 1012q0 8 1 21.5t5 21.5l185 12v35q0 111 22.5 188.5t85.5 141.5q45 45 108.5 66.5t139.5 21.5q41 0 81 -8.5t68 -18.5q6 -16 7 -39q0 -10 -1 -24.5t-6 -22.5q-23 6 -59.5 11t-69.5 5q-117 0 -174 -63q-45 -47 -57 -111.5t-12 -146.5v-35h473v35q0 111 22.5 188.5 t85.5 141.5q45 45 108.5 66.5t139.5 21.5q41 0 81 -8.5t69 -18.5q6 -16 6 -39q0 -10 -1 -24.5t-5 -22.5q-23 6 -60 11t-69 5q-117 0 -174 -63q-45 -47 -57.5 -111.5t-12.5 -146.5v-35h289q4 -8 6 -23.5t2 -25.5q0 -12 -2 -28.5t-6 -26.5h-289v-963q-31 -10 -66 -10 q-37 0 -67 10v963h-473v-963q-31 -10 -66 -10q-37 0 -67 10v963h-185q-4 8 -5 23t-1 26zM1481 0v1495q14 4 30.5 7t36.5 3q35 0 66 -10v-1495q-37 -10 -70 -10t-63 10z" />
<glyph horiz-adv-x="0" />
<glyph horiz-adv-x="0" />
<glyph unicode="&#xd;" horiz-adv-x="450" />
<glyph unicode=" "  horiz-adv-x="450" />
<glyph unicode="&#x09;" horiz-adv-x="450" />
<glyph unicode="&#xa0;" horiz-adv-x="450" />
<glyph unicode="!" horiz-adv-x="489" d="M143 76q0 41 28 68.5t69 27.5t68.5 -27.5t27.5 -68.5t-27.5 -68.5t-68.5 -27.5t-69 27.5t-28 68.5zM166 1384q14 4 37.5 7.5t40.5 3.5q16 0 38.5 -3t36.5 -8l-24 -999q-10 -4 -26.5 -6t-26.5 -2t-26.5 2t-27.5 6z" />
<glyph unicode="&#x22;" horiz-adv-x="647" d="M123 1499q16 4 36.5 6t30.5 2t33 -2t37 -6l-12 -426q-10 -4 -28.5 -5t-29.5 -1q-10 0 -28.5 1t-26.5 5zM387 1499q16 4 36.5 6t31.5 2q10 0 32.5 -2t36.5 -6l-12 -426q-10 -4 -28.5 -5t-28.5 -1t-28.5 1t-27.5 5z" />
<glyph unicode="#" d="M-14 483q0 12 3 26.5t7 25.5h235l50 333h-218q-4 10 -7 26.5t-3 29.5q0 12 3 26.5t7 24.5h236l63 409q10 4 28 7.5t30 3.5q14 0 32.5 -3t28.5 -8l-63 -409h332l63 409q10 4 27.5 7.5t29.5 3.5q14 0 33 -3t29 -8l-64 -409h195q4 -10 7 -24.5t3 -26.5t-3 -28.5t-7 -27.5 h-213l-49 -333h215q4 -10 7 -24.5t3 -27.5q0 -12 -3 -28.5t-7 -26.5h-234l-65 -428q-10 -4 -28.5 -7t-35.5 -3q-10 0 -26.5 3t-28.5 7l66 428h-332l-66 -428q-10 -4 -28.5 -7t-34.5 -3q-10 0 -26.5 3t-29.5 7l66 428h-217q-4 10 -7 26.5t-3 28.5zM350 535h332l49 333h-332z " />
<glyph unicode="$" d="M166 100q0 16 2 33t6 29q80 -33 178.5 -51.5t177.5 -18.5v567l-32 13q-154 57 -238 140t-84 230q0 154 98.5 245t255.5 112v196q12 4 28.5 6.5t29.5 2.5q14 0 29.5 -2.5t25.5 -6.5v-190q70 -2 136.5 -12.5t129.5 -26.5q10 -20 11 -51q0 -29 -11 -53q-131 33 -266 34v-544 l37 -15q141 -53 225 -135.5t84 -232.5q0 -174 -95 -268.5t-251 -114.5v-179q-10 -4 -25.5 -6t-29.5 -2q-12 0 -28.5 2t-29.5 6v173q-90 2 -184 17t-170 44q-10 27 -10 59zM319 1051q0 -53 12.5 -92t39 -68t65.5 -52.5t94 -45.5v495q-41 -4 -79.5 -20.5t-67.5 -46 t-46.5 -71.5t-17.5 -99zM643 102q104 16 156.5 82t52.5 170q0 106 -52 165t-157 99v-516z" />
<glyph unicode="%" horiz-adv-x="1599" d="M180 1083q0 164 65.5 248t188.5 84t188.5 -84t65.5 -248q0 -160 -65.5 -243.5t-188.5 -83.5t-188.5 84t-65.5 243zM303 1083q0 -98 28.5 -162.5t102.5 -64.5t103.5 64.5t29.5 162.5q0 102 -29.5 167t-103.5 65t-102.5 -64.5t-28.5 -167.5zM334 59l846 1366 q33 -12 53 -25.5t43 -35.5l-844 -1374q-57 23 -98 69zM911 297q0 164 65.5 248t188.5 84t188.5 -84t65.5 -248q0 -160 -65.5 -244t-188.5 -84t-188.5 84t-65.5 244zM1034 297q0 -98 29 -162.5t102 -64.5q74 0 103.5 64.5t29.5 162.5q0 102 -29.5 166.5t-103.5 64.5 t-102.5 -64.5t-28.5 -166.5z" />
<glyph unicode="&#x26;" horiz-adv-x="1335" d="M88 346q0 133 80 240.5t213 179.5q-92 96 -132 174t-40 156q0 68 26.5 125t72.5 98t107.5 63.5t129.5 22.5q59 0 113.5 -18.5t96.5 -53.5t66.5 -83t24.5 -109t-18.5 -112.5t-56.5 -96.5t-94 -90t-132 -94l413 -424q78 106 102.5 212.5t24.5 204.5q10 4 27.5 7.5t28.5 3.5 q14 0 28.5 -4.5t24.5 -8.5q-2 -53 -10 -113.5t-27.5 -124t-49.5 -128t-75 -121.5q80 -84 145.5 -127t125.5 -53q4 -14 5 -30t1 -26q0 -8 -3 -23.5t-8 -25.5q-86 8 -165.5 55.5t-171.5 147.5q-96 -98 -211 -144t-226 -46q-94 0 -174 26.5t-138 75.5t-91 116.5t-33 147.5z M227 354q0 -123 82 -198.5t223 -75.5q92 0 185.5 42t165.5 116l-437 452q-109 -59 -164 -140t-55 -196zM330 1104q0 -86 40 -152.5t107 -132.5q117 72 183.5 145.5t66.5 165.5q0 88 -54.5 134.5t-127.5 46.5q-94 0 -154.5 -55.5t-60.5 -151.5z" />
<glyph unicode="'" horiz-adv-x="382" d="M123 1499q16 4 36.5 6t30.5 2t33 -2t37 -6l-12 -426q-10 -4 -28.5 -5t-29.5 -1q-10 0 -28.5 1t-26.5 5z" />
<glyph unicode="(" horiz-adv-x="634" d="M113 606q0 242 89 457t255 387q37 -10 61 -35q-143 -184 -208.5 -389t-65.5 -416q0 -209 65.5 -411t208.5 -392q-25 -25 -61 -34q-86 86 -150.5 185t-107.5 206.5t-64.5 220.5t-21.5 221z" />
<glyph unicode=")" horiz-adv-x="634" d="M115 -193q143 190 208.5 392t65.5 411q0 211 -65.5 416t-208.5 389q25 25 61 35q166 -172 255 -387t89 -457q0 -109 -21.5 -221.5t-64.5 -220t-107.5 -206.5t-150.5 -185q-36 9 -61 34z" />
<glyph unicode="*" horiz-adv-x="708" d="M39 1135q6 33 17.5 64.5t29.5 57.5l231 -127l-36 259q37 10 69 10q16 0 34.5 -2t37.5 -6l-35 -261l234 130q18 -27 30.5 -59t18.5 -64l-264 -74l194 -199q-23 -29 -48.5 -44t-59.5 -29l-138 227l-145 -225q-33 14 -58.5 30.5t-48.5 44.5l197 195z" />
<glyph unicode="+" horiz-adv-x="1044" d="M150 539q0 12 3 26.5t7 24.5h311v354q10 4 26.5 7t28.5 3t27.5 -3t26.5 -7v-354h303q4 -10 7 -24.5t3 -26.5t-3 -28.5t-7 -27.5h-303v-358q-10 -4 -25.5 -7t-28.5 -3q-12 0 -28.5 3t-26.5 7v358h-311q-4 10 -7 26.5t-3 29.5z" />
<glyph unicode="," horiz-adv-x="423" d="M27 -266q63 51 107 107.5t61 119.5q-33 16 -55.5 47t-22.5 72q0 43 28.5 71.5t67.5 28.5q49 0 81 -39t32 -92q0 -86 -68 -186.5t-197 -179.5q-10 8 -20 23t-14 28z" />
<glyph unicode="-" horiz-adv-x="583" d="M82 535q0 12 3 28.5t7 24.5h400q4 -8 7 -24.5t3 -28.5q0 -29 -10 -56h-400q-10 27 -10 56z" />
<glyph unicode="." horiz-adv-x="413" d="M111 76q0 41 27.5 68.5t68.5 27.5t68.5 -27.5t27.5 -68.5t-27.5 -68.5t-68.5 -27.5t-68.5 27.5t-27.5 68.5z" />
<glyph unicode="/" horiz-adv-x="669" d="M76 -20l411 1425q16 4 36 7t32 3t31.5 -3t27.5 -7l-411 -1425q-31 -10 -68 -11q-29 0 -59 11z" />
<glyph unicode="0" d="M109 692q0 190 30.5 325.5t88 221.5t138 126t181.5 40q102 0 182 -40t135.5 -126t84 -221.5t28.5 -325.5t-31 -325.5t-88 -221.5t-138 -125.5t-181 -39.5q-104 0 -184.5 39.5t-134.5 125.5t-82.5 221.5t-28.5 325.5zM256 692q0 -305 65.5 -458.5t219.5 -153.5t221 153.5 t67 458.5t-64.5 459t-217.5 154q-154 0 -222.5 -154t-68.5 -459z" />
<glyph unicode="1" d="M156 1108l438 278q10 4 25.5 6.5t27.5 2.5q33 0 60 -11v-1384q-12 -4 -33 -7t-37 -3t-36.5 3t-33.5 7v1245l-358 -227q-16 14 -31.5 38.5t-21.5 51.5z" />
<glyph unicode="2" d="M147 80v16t3 17q45 49 92 100t92 100t86 94.5t72 79.5q84 94 143 173t96 145.5t54.5 125t17.5 116.5q0 129 -68.5 193.5t-189.5 64.5q-82 0 -171 -21.5t-165 -56.5q-4 10 -5 26.5t-1 26.5q0 27 10 53q61 29 158.5 50.5t191.5 21.5q86 0 158 -23.5t122 -67.5t78.5 -108.5 t28.5 -146.5q0 -70 -19.5 -135.5t-63.5 -139t-114.5 -164t-172.5 -208.5q-76 -88 -145.5 -163t-129.5 -140h631q4 -14 5 -28.5t1 -25.5q0 -29 -6 -55h-772q-16 47 -17 80z" />
<glyph unicode="3" d="M170 80q0 10 1 27.5t5 27.5q68 -25 139.5 -39t147.5 -14q68 0 126 19.5t101 59.5t67.5 100.5t24.5 141.5q0 98 -32.5 156.5t-86 89.5t-121 39t-136.5 8h-11q-6 25 -6 49q0 8 1 21.5t5 24.5h41q135 0 218 61t83 211q0 127 -63.5 184.5t-173.5 57.5q-84 0 -160 -15.5 t-133 -38.5q-4 8 -6 25.5t-2 30.5q0 27 8 47q53 23 135 37t168 14q166 0 269.5 -85t103.5 -249q0 -127 -59.5 -206t-172.5 -113v-2q133 -33 206 -119.5t73 -227.5q0 -106 -35 -186t-95.5 -132t-143.5 -78.5t-177 -26.5q-84 0 -162.5 14t-138.5 37q-4 10 -6 24.5t-2 24.5z " />
<glyph unicode="4" d="M94 389q0 37 10 64l447 931q16 4 35.5 7.5t36.5 3.5q39 0 69 -11l-454 -938h454v355q12 4 31.5 7t36.5 3q16 0 35.5 -3t31.5 -7v-355h203q10 -26 10 -55t-10 -55h-203v-336q-16 -4 -33.5 -6t-33.5 -2t-35.5 2t-32.5 6v336h-588q-10 25 -10 53z" />
<glyph unicode="5" d="M197 74q0 29 8 53q68 -23 139.5 -34t142.5 -11q160 0 238 90t78 238q0 180 -93.5 251.5t-273.5 71.5h-205v651h650q4 -10 7 -24t3 -25q0 -12 -3 -29.5t-7 -29.5h-516v-442h106q104 0 192.5 -21.5t152 -71t99 -128t35.5 -193.5q0 -102 -32.5 -184t-92 -138.5t-141.5 -87 t-180 -30.5q-80 0 -158 11t-143 36q-4 8 -5 21t-1 26z" />
<glyph unicode="6" d="M141 604q0 160 30 305.5t98.5 256t180 175t273.5 64.5q37 0 71.5 -5t57.5 -11q4 -10 6 -22.5t2 -20.5q0 -10 -3 -25.5t-7 -24.5q-23 4 -55.5 8.5t-61.5 4.5q-104 0 -182 -41t-133.5 -117t-86 -184.5t-38.5 -241.5q59 55 148 91t182 36q84 0 151.5 -29.5t114.5 -84 t72.5 -129.5t25.5 -165q0 -98 -27.5 -183t-80 -147.5t-129 -98t-175.5 -35.5q-125 0 -207.5 47t-133 130t-72 197.5t-21.5 249.5zM287 539q0 -100 15 -185.5t50 -147t89.5 -96t133.5 -34.5q70 0 120 32.5t82 84t47.5 116t15.5 127.5q0 57 -10.5 113.5t-37 100.5t-70.5 72 t-112 28q-80 0 -169 -39t-152 -105q-2 -23 -2 -38v-29z" />
<glyph unicode="7" d="M135 1333q0 27 10 51h826q4 -10 6 -24.5t2 -24.5q0 -37 -8 -59l-580 -1276q-12 -4 -32.5 -7t-41.5 -3q-39 0 -69 10l596 1276h-697q-12 27 -12 57z" />
<glyph unicode="8" d="M109 365q0 61 23.5 119.5t65.5 107.5t98 89t124 67q-109 55 -180.5 134t-71.5 201q0 78 31.5 138.5t86 101.5t124 62.5t145.5 21.5q74 0 140.5 -19.5t118.5 -59.5t83 -98.5t31 -135.5q0 -92 -60.5 -185.5t-208.5 -158.5q70 -31 129.5 -68t102.5 -83t67.5 -102t24.5 -126 q0 -90 -34 -163t-92 -123t-137 -77.5t-171 -27.5q-94 0 -175 23.5t-139.5 71.5t-92 119.5t-33.5 170.5zM256 360q0 -66 21.5 -116.5t59.5 -87.5t91 -56.5t117 -19.5q125 0 208 72t83 213q0 127 -80 203.5t-221 131.5q-129 -53 -204 -137t-75 -203zM311 1085q0 -201 240 -290 q111 47 172 116.5t61 173.5q0 111 -65.5 167.5t-169.5 56.5q-49 0 -92 -14.5t-75 -42t-51.5 -69.5t-19.5 -98z" />
<glyph unicode="9" d="M123 930q0 109 29.5 196.5t85 149t135.5 95.5t178 34q119 0 199.5 -48t129 -130t69 -192.5t20.5 -235.5q0 -166 -25.5 -315.5t-87 -261t-164 -177t-256.5 -65.5q-55 0 -103 8t-71 16q-4 10 -6 21.5t-2 21.5t2 25.5t6 25.5q23 -6 68 -13t104 -7q92 0 163 41t118 116.5 t73.5 179t30.5 230.5q-59 -55 -145 -92t-172 -37q-180 0 -279.5 111.5t-99.5 302.5zM270 940q0 -66 13.5 -123t42 -100t74.5 -68.5t114 -25.5q86 0 168 41t139 100q2 20 2 47v37q0 72 -11 152.5t-42 149.5t-84 114t-137 45q-74 0 -126 -30t-86 -80t-50.5 -116.5 t-16.5 -142.5z" />
<glyph unicode=":" horiz-adv-x="401" d="M96 76q0 41 28 68.5t69 27.5t68.5 -27.5t27.5 -68.5t-28 -68.5t-68 -27.5q-41 0 -69 27.5t-28 68.5zM96 989q0 41 28 68.5t69 27.5t68.5 -27.5t27.5 -68.5t-28 -68.5t-68 -27.5q-41 0 -69 27.5t-28 68.5z" />
<glyph unicode=";" horiz-adv-x="423" d="M27 -266q63 51 107 107.5t61 119.5q-33 16 -55.5 47t-22.5 72q0 43 28.5 71.5t67.5 28.5q49 0 81 -39t32 -92q0 -86 -68 -186.5t-197 -179.5q-10 8 -20 23t-14 28zM119 989q0 41 27.5 68.5t68.5 27.5t68.5 -27.5t27.5 -68.5t-27.5 -68.5t-68.5 -27.5t-68.5 27.5 t-27.5 68.5z" />
<glyph unicode="&#x3c;" horiz-adv-x="1044" d="M150 539q0 8 1 21t5 22l692 331q23 -18 32 -44.5t13 -51.5l-600 -278l600 -279q-4 -27 -13.5 -52.5t-31.5 -43.5l-692 332q-4 8 -5 21t-1 22z" />
<glyph unicode="=" horiz-adv-x="1044" d="M150 322q0 12 3 26t7 25h723q4 -10 7 -24.5t3 -26.5t-3 -29t-7 -27h-723q-4 10 -7 26.5t-3 29.5zM150 752q0 12 3 26.5t7 24.5h723q4 -10 7 -24.5t3 -26.5t-3 -28.5t-7 -27.5h-723q-4 10 -7 26.5t-3 29.5z" />
<glyph unicode="&#x3e;" horiz-adv-x="1044" d="M150 260l600 279l-600 278q4 27 13 52.5t32 43.5l692 -331q4 -8 5 -21.5t1 -21.5t-1 -21.5t-5 -21.5l-692 -332q-23 18 -32 45t-13 51z" />
<glyph unicode="?" horiz-adv-x="884" d="M104 1307q0 29 11 49q47 23 120.5 36t141.5 13q180 0 282.5 -83t102.5 -241q0 -74 -13.5 -128t-43 -98t-74.5 -80t-107 -68q-57 -31 -92 -54.5t-54.5 -47t-25.5 -52.5t-6 -70v-98q-14 -4 -28.5 -7t-32.5 -3q-37 0 -64 10v98q0 51 9.5 91t34 74t67.5 67t110 69 q47 27 81 53.5t55.5 60.5t30.5 77t9 100q0 127 -70.5 180.5t-189.5 53.5q-63 0 -130.5 -13.5t-114.5 -29.5q-8 16 -9 41zM190 76q0 41 28 68.5t69 27.5t68.5 -27.5t27.5 -68.5t-27.5 -68.5t-68.5 -27.5t-69 27.5t-28 68.5z" />
<glyph unicode="@" horiz-adv-x="1679" d="M119 631q0 166 59.5 307t163.5 245.5t248.5 163t314.5 58.5q125 0 242 -40t206 -117t142 -189.5t53 -259.5q0 -84 -24.5 -169t-71.5 -152.5t-116.5 -110.5t-159.5 -43q-92 0 -138.5 42t-60.5 107h-6q-43 -66 -95.5 -100.5t-123.5 -34.5q-104 0 -164 74.5t-60 208.5 q0 98 28 178t75 137t106.5 89t124.5 32q61 0 108.5 -31t73.5 -88l23 72h111l-88 -375q-16 -70 -17 -111q0 -49 26.5 -77.5t80.5 -28.5q61 0 108 32.5t79 85t48.5 119t16.5 133.5q0 119 -39 213.5t-109 161t-167 101t-214 34.5q-143 0 -261 -51t-202 -140t-130 -210t-46 -258 q0 -139 43 -243.5t119 -174t179.5 -105.5t225.5 -36q94 0 184.5 15.5t158.5 43.5q6 -18 10 -43.5t2 -48.5q-78 -33 -173 -50t-200 -17q-150 0 -276.5 47t-220 132t-145.5 204.5t-52 267.5zM651 625q0 -104 31 -150.5t84 -46.5q59 0 107.5 43t84.5 123l54 233q-16 68 -54 106 t-92 38q-41 0 -79.5 -26.5t-68.5 -73t-48.5 -110t-18.5 -136.5z" />
<glyph unicode="A" horiz-adv-x="1206" d="M61 0l471 1384q37 10 70 11q35 0 66 -11l497 -1384q-27 -10 -71 -10q-18 0 -39 3t-35 7l-125 358h-571l-121 -360q-10 -4 -31.5 -6t-38.5 -2q-37 0 -72 10zM358 467h498l-190 543q-16 41 -33 97t-31 110q-16 -53 -32.5 -109.5t-30.5 -97.5z" />
<glyph unicode="B" horiz-adv-x="1144" d="M174 0v1384q61 4 139 7.5t156 3.5q236 0 351.5 -76t115.5 -266q0 -117 -54.5 -197t-150.5 -111q145 -16 230.5 -110.5t85.5 -241.5q0 -106 -39 -182t-108 -125t-162 -72.5t-201 -23.5q-104 0 -190.5 3t-172.5 7zM313 98q47 -4 97.5 -6t109.5 -2q176 0 277.5 71.5 t101.5 229.5q0 80 -27.5 139.5t-80.5 94.5q-49 31 -105.5 42t-134.5 11h-238v-580zM313 780h160q68 0 127 9.5t103.5 39t71 83t26.5 139.5q0 78 -28 126t-74 73.5t-105 34.5t-125 9q-27 0 -71 -1t-85 -5v-508z" />
<glyph unicode="C" horiz-adv-x="1153" d="M117 684q0 162 42 295t119.5 227t191.5 146.5t257 52.5q84 0 164 -13.5t131 -33.5q8 -22 8 -55q0 -10 -1 -24.5t-5 -25.5q-59 16 -136 27.5t-147 11.5q-127 0 -217 -47t-148.5 -129t-85 -192.5t-26.5 -237.5q0 -125 25.5 -233.5t82 -188.5t144.5 -126t213 -46 q82 0 160 11.5t133 29.5q4 -10 5 -23.5t1 -25.5q0 -16 -1 -32.5t-5 -26.5q-55 -18 -131 -31.5t-166 -13.5q-139 0 -252 43t-191.5 130t-121.5 219t-43 312z" />
<glyph unicode="D" horiz-adv-x="1308" d="M174 0v1384q78 4 173 7.5t181 3.5q340 0 502 -162t162 -520q0 -162 -40 -295t-121 -228.5t-206 -147.5t-295 -52q-37 0 -87 1l-100 2t-96 3t-73 4zM313 102q18 -2 47 -4t59 -3t58.5 -2t48.5 -1q248 0 383 156t135 457q0 145 -26.5 255.5t-87 184.5t-158.5 110.5 t-244 36.5q-49 0 -108.5 -1t-106.5 -5v-1184z" />
<glyph unicode="E" horiz-adv-x="1034" d="M174 0v1384h723q10 -25 10 -53q0 -33 -10 -53h-584v-508h504q4 -8 7 -24.5t3 -28.5q0 -29 -10 -55h-504v-556h615q10 -24 10 -53q0 -33 -10 -53h-754z" />
<glyph unicode="F" horiz-adv-x="989" d="M174 0v1384h723q10 -24 10 -53q0 -33 -10 -53h-584v-508h492q4 -8 7 -24.5t3 -28.5q0 -29 -10 -55h-492v-662q-12 -4 -32.5 -7t-36.5 -3t-37 3t-33 7z" />
<glyph unicode="G" horiz-adv-x="1271" d="M117 678q0 162 45 295t130 229t207 149.5t275 53.5q37 0 77 -4t79 -10.5t75.5 -14.5t65.5 -18q4 -10 6 -25.5t2 -29.5q0 -8 -1 -24.5t-5 -27.5q-63 18 -143 29.5t-150 11.5q-125 0 -221 -45t-161.5 -127t-99.5 -193.5t-34 -244.5t31 -241.5t92.5 -185.5t153.5 -119 t215 -42q63 0 127.5 11.5t97.5 27.5v473q31 10 70 10t69 -10v-553q-31 -14 -72.5 -27.5t-91 -23.5t-102.5 -16t-106 -6q-154 0 -272 49t-197.5 140t-120.5 220t-41 289z" />
<glyph unicode="H" horiz-adv-x="1296" d="M174 0v1384q12 4 32.5 7.5t37.5 3.5q16 0 36.5 -3t32.5 -8v-632h670v632q12 4 32.5 7.5t37.5 3.5q16 0 36.5 -3t32.5 -8v-1384q-12 -4 -32.5 -7t-36.5 -3t-37 3t-33 7v641h-670v-641q-12 -4 -32.5 -7t-36.5 -3t-37 3t-33 7z" />
<glyph unicode="I" horiz-adv-x="495" d="M178 0v1384q12 4 32.5 7.5t37.5 3.5q16 0 36.5 -3t32.5 -8v-1384q-12 -4 -32.5 -7t-36.5 -3t-37 3t-33 7z" />
<glyph unicode="J" horiz-adv-x="868" d="M45 61q0 33 6 56q47 -10 105.5 -17.5t113.5 -7.5q158 0 226 86q47 57 56 137t9 172v897q12 4 32.5 7.5t37.5 3.5q16 0 36.5 -3t32.5 -8v-907q0 -129 -25.5 -229.5t-90.5 -165.5q-49 -49 -127 -75.5t-164 -26.5q-61 0 -124 7t-114 19q-4 10 -7 25.5t-3 29.5z" />
<glyph unicode="K" horiz-adv-x="1103" d="M174 0v1384q12 4 31.5 7.5t36.5 3.5q16 0 37.5 -3t33.5 -8v-694l437 500q47 53 71.5 102t32.5 92l31.5 4.5t34.5 2.5q16 0 36.5 -2.5t30.5 -4.5q-4 -49 -34.5 -113.5t-94.5 -135.5l-307 -355l528 -780q-12 -4 -33.5 -7t-39.5 -3t-40 2t-48 8l-457 680l-148 -166v-514 q-12 -4 -33.5 -7t-37.5 -3t-36 3t-32 7z" />
<glyph unicode="L" horiz-adv-x="997" d="M174 0v1384q12 4 32.5 7.5t37.5 3.5q16 0 36.5 -3t32.5 -8v-1278h609q4 -10 7 -25.5t3 -29.5q0 -12 -3 -26.5t-7 -24.5h-748z" />
<glyph unicode="M" horiz-adv-x="1591" d="M154 0l49 1384q12 4 39.5 7.5t38.5 3.5q16 0 38.5 -3t36.5 -8l441 -1075l428 1075q16 4 44.5 7.5t39.5 3.5q14 0 40.5 -3t43.5 -8l45 -1384q-31 -10 -68 -10q-16 0 -36.5 3t-35.5 7l-30 1182q-10 -31 -26.5 -73t-35 -89l-37 -94t-34.5 -86l-287 -709q-10 -2 -26.5 -4 t-26.5 -2t-26.5 2t-27.5 4l-295 713q-41 100 -73.5 181t-50.5 140l-29 -1165q-16 -4 -36.5 -7t-37.5 -3q-14 0 -34.5 3t-30.5 7z" />
<glyph unicode="N" horiz-adv-x="1361" d="M174 0v1384q12 4 29.5 7.5t32.5 3.5q33 0 57 -11l770 -1140v1140q35 10 63 11q31 0 62 -11v-1384q-8 -4 -24.5 -6t-30.5 -2q-10 0 -24.5 2t-27.5 6l-782 1161v-1161q-25 -10 -63 -10q-35 0 -62 10z" />
<glyph unicode="O" horiz-adv-x="1282" d="M117 692q0 344 132 528.5t392 184.5t392 -184.5t132 -528.5t-132 -528t-392 -184t-392 184t-132 528zM264 692q0 -309 95.5 -458.5t281.5 -149.5t281.5 149.5t95.5 458.5t-95.5 458.5t-281.5 149.5t-281.5 -149.5t-95.5 -458.5z" />
<glyph unicode="P" horiz-adv-x="1067" d="M174 0v1384q29 2 73 4.5t92 3.5l96 2t89 1q102 0 188.5 -20.5t150 -67.5t98 -124t34.5 -188q0 -223 -121.5 -333.5t-343.5 -110.5h-217v-551q-12 -4 -33.5 -7t-37.5 -3t-36 3t-32 7zM313 655h195q82 0 146.5 17.5t108.5 57.5t67.5 103.5t23.5 157.5q0 92 -24.5 150.5 t-68.5 92.5t-105.5 46t-133.5 12q-35 0 -97.5 -1t-111.5 -5v-631z" />
<glyph unicode="Q" horiz-adv-x="1282" d="M117 692q0 344 132 528.5t392 184.5t392 -184.5t132 -528.5q0 -240 -64.5 -402.5t-193.5 -242.5l267 -172q-16 -41 -34 -63.5t-36 -38.5l-328 221q-33 -8 -66.5 -11t-68.5 -3q-260 0 -392 184t-132 528zM264 692q0 -309 95.5 -458.5t281.5 -149.5t281.5 149.5t95.5 458.5 t-95.5 458.5t-281.5 149.5t-281.5 -149.5t-95.5 -458.5z" />
<glyph unicode="R" horiz-adv-x="1116" d="M174 0v1384q68 4 146.5 7.5t154.5 3.5q111 0 201 -20.5t154.5 -67.5t100.5 -127t36 -199q0 -147 -68 -248.5t-203 -144.5l338 -588q-10 -4 -31.5 -7t-37.5 -3q-41 0 -86 10l-316 559q-16 -2 -33.5 -2h-35.5h-181v-557q-12 -4 -33.5 -7t-37.5 -3t-36 3t-32 7zM313 664h189 q158 0 240.5 73.5t82.5 245.5q0 170 -83 239.5t-242 69.5q-39 0 -95.5 -1t-91.5 -5v-622z" />
<glyph unicode="S" horiz-adv-x="1056" d="M127 100q0 16 2 33t6 29q82 -33 182.5 -51.5t180.5 -18.5q156 0 235.5 66.5t79.5 195.5q0 113 -58.5 172.5t-172.5 100.5l-123 45q-154 57 -238 140t-84 230q0 86 33 154t91 114t139 70.5t178 24.5q76 0 150.5 -10.5t143.5 -28.5q4 -10 6.5 -23.5t2.5 -27.5 q0 -12 -3.5 -29.5t-7.5 -28.5q-66 20 -138.5 29.5t-145.5 9.5q-57 0 -111.5 -11t-97.5 -38.5t-69.5 -76t-26.5 -119.5q0 -57 15 -98.5t46 -72t78 -54t112 -48.5l109 -41q141 -53 225 -135.5t84 -232.5q0 -100 -32.5 -173t-91 -121t-140.5 -71.5t-178 -23.5q-92 0 -191.5 16 t-179.5 45q-10 27 -10 59z" />
<glyph unicode="T" horiz-adv-x="1073" d="M53 1331q0 29 10 53h947q10 -24 10 -53q0 -33 -10 -53h-404v-1278q-12 -4 -32.5 -7t-36.5 -3t-37 3t-33 7v1278h-404q-10 20 -10 53z" />
<glyph unicode="U" horiz-adv-x="1267" d="M166 494v890q12 4 31.5 7.5t38.5 3.5q35 0 69 -11v-911q0 -102 18.5 -178t63.5 -125q39 -41 98.5 -64.5t147.5 -23.5t148.5 23.5t99.5 64.5q45 49 63.5 125t18.5 178v911q14 4 34.5 7.5t34.5 3.5q16 0 35.5 -3t34.5 -8v-890q0 -137 -27.5 -233.5t-93.5 -162.5 q-57 -57 -143 -87.5t-205 -30.5t-204 30.5t-142 87.5q-66 66 -93.5 162t-27.5 234z" />
<glyph unicode="V" horiz-adv-x="1196" d="M61 1384q14 4 36 7.5t36 3.5q33 0 68 -11q0 -43 3 -80.5t10 -75.5t19.5 -81t32.5 -96l256 -693q14 -41 35 -101t37 -114q16 53 35.5 113.5t36.5 101.5l264 693q20 53 33.5 98t20.5 85t10 77t5 73q31 10 66 11q35 -1 70 -11q-4 -72 -15.5 -160.5t-54.5 -199.5l-399 -1024 q-14 -4 -34 -7t-36 -3t-37.5 3t-38.5 7l-385 1012q-25 63 -39 112.5t-21 92.5t-10.5 83.5t-3.5 83.5z" />
<glyph unicode="W" horiz-adv-x="1759" d="M61 1384q16 4 36 7.5t36 3.5t32.5 -3t35.5 -8q2 -82 11 -160.5t32 -156.5l211 -750q4 -14 10 -38.5t13 -52t13.5 -53.5l10.5 -42q4 31 16 88t23 100l268 1065q31 10 65 11q16 0 36 -3t30 -8l268 -1062q10 -41 23.5 -94.5t23.5 -98.5q10 45 24.5 100.5t27.5 100.5l209 737 q23 78 34 157t13 160q35 10 67 11q16 0 36 -3t32 -8q-2 -80 -14 -163.5t-37 -173.5l-301 -1047q-16 -4 -46 -7t-47 -3q-16 0 -39.5 3t-42.5 7l-258 993q-12 49 -21 94.5t-15 90.5q-8 -43 -17.5 -86t-23.5 -97l-254 -995q-35 -10 -82 -10q-23 0 -47.5 2t-40.5 8l-299 1038 q-27 86 -38.5 173t-13.5 173z" />
<glyph unicode="X" horiz-adv-x="1122" d="M41 0q10 72 45 156t102 182l275 393l-268 379q-57 80 -83 147.5t-36 126.5q16 4 38.5 7.5t37.5 3.5q16 0 32.5 -2t30.5 -7q10 -53 32.5 -109t65.5 -118l236 -334l229 322q37 53 63.5 115.5t37.5 121.5q16 4 31.5 7.5t31.5 3.5q39 0 74 -11q-10 -61 -41 -138t-94 -165 l-244 -344l281 -379q78 -104 115.5 -195t47.5 -163q-10 -4 -30.5 -7t-34.5 -3q-41 0 -76 10q-10 78 -45 147.5t-100 159.5l-244 336l-221 -326q-37 -53 -61.5 -93t-40 -75.5t-24.5 -70.5t-16 -78q-14 -4 -37.5 -7t-39.5 -3q-39 0 -70 10z" />
<glyph unicode="Y" horiz-adv-x="1015" d="M41 1382q12 4 35.5 7.5t34.5 3.5q14 0 35.5 -3.5t31.5 -7.5q4 -59 19.5 -116.5t35.5 -98.5l277 -555l272 553q27 53 42.5 106.5t17.5 112.5q10 4 31.5 7.5t35.5 3.5q16 0 36 -3.5t30 -7.5q-2 -63 -21.5 -128.5t-54.5 -135.5l-321 -631v-489q-12 -4 -33 -7t-37 -3t-36.5 3 t-33.5 7v494l-319 628q-33 66 -53.5 127.5t-24.5 132.5z" />
<glyph unicode="Z" horiz-adv-x="1071" d="M94 53q0 33 8 60l719 1165h-678q-4 10 -6 26.5t-2 32.5q0 10 2 23.5t6 23.5h820q6 -12 8 -26.5t2 -28.5t-2 -29.5t-6 -29.5l-719 -1164h719q4 -10 6 -26.5t2 -26.5t-2 -26.5t-6 -26.5h-863q-4 16 -6 29.5t-2 23.5z" />
<glyph unicode="[" horiz-adv-x="622" d="M184 -295v1700h346q6 -10 8.5 -20.5t2.5 -20.5q0 -25 -11 -49h-213v-1518h213q4 -8 7.5 -21.5t3.5 -23.5q0 -27 -11 -47h-346z" />
<glyph unicode="\" horiz-adv-x="714" d="M94 1405q8 4 27.5 7t32.5 3q12 0 31.5 -3t35.5 -7l412 -1425q-31 -10 -60 -11q-37 0 -67 11z" />
<glyph unicode="]" horiz-adv-x="636" d="M96 -248q0 10 3 23.5t7 21.5h213v1518h-213q-10 25 -10 49q0 10 2 20.5t8 20.5h347v-1700h-347q-10 20 -10 47z" />
<glyph unicode="^" horiz-adv-x="1044" d="M111 862l364 527q25 6 45 6q10 0 26.5 -1t26.5 -5l361 -527q-12 -20 -40 -37.5t-52 -23.5l-322 477l-321 -477q-20 6 -46 23.5t-42 37.5z" />
<glyph unicode="_" horiz-adv-x="1044" d="M66 -246q0 27 10 47h893q10 -20 10 -47q0 -29 -10 -49h-893q-4 10 -7 24.5t-3 24.5z" />
<glyph unicode="`" horiz-adv-x="665" d="M113 1438q12 29 31.5 61.5t41.5 56.5l385 -241q-8 -23 -20 -44.5t-27 -37.5z" />
<glyph unicode="a" horiz-adv-x="1011" d="M84 305q0 94 36 163t95 112q68 47 154 65.5t182 18.5q104 0 184 -13v60q0 154 -63.5 213t-192.5 59q-72 0 -152.5 -12.5t-136.5 -26.5q-8 20 -8 53q0 27 11 47q66 20 147.5 31.5t155.5 11.5q184 0 278 -86t94 -274v-465v-122.5t4 -139.5q-25 -10 -55 -10q-29 0 -55 10 q-4 25 -7 55.5t-5 59.5h-2q-53 -66 -137.5 -100.5t-176.5 -34.5q-72 0 -135 20t-111.5 60t-76 101.5t-27.5 143.5zM223 307q0 -113 64.5 -167t165.5 -54q84 0 162.5 37t119.5 100v328q-90 12 -174 12q-76 0 -140.5 -15.5t-111.5 -49.5q-86 -63 -86 -191z" />
<glyph unicode="b" horiz-adv-x="1067" d="M139 35v1460q10 4 29.5 7t34.5 3q25 0 42 -3t27 -7v-518q63 53 140 81.5t163 28.5q109 0 187 -43t127 -115.5t72.5 -167t23.5 -198.5q0 -133 -33.5 -240.5t-99.5 -183.5t-162 -117.5t-223 -41.5q-72 0 -157 12t-171 43zM272 115q41 -16 90.5 -24.5t94.5 -8.5 q106 0 181 38t121 102.5t66.5 150.5t20.5 182q0 74 -12.5 148.5t-45 135t-89 97.5t-142.5 37q-78 0 -151.5 -32t-133.5 -91v-735z" />
<glyph unicode="c" horiz-adv-x="890" d="M80 520q0 125 31.5 229.5t94 179.5t155 116.5t214.5 41.5q59 0 123 -12t111 -35q8 -22 8 -51q0 -31 -6 -51q-49 20 -109.5 31.5t-117.5 11.5q-100 0 -170 -36t-113 -98.5t-62.5 -145.5t-19.5 -177q0 -92 18.5 -172t61.5 -138t112.5 -92t170.5 -34q53 0 113.5 8t107.5 23 q4 -10 6 -20.5t2 -22.5q0 -33 -10 -58q-45 -18 -109.5 -28t-122.5 -10q-125 0 -217 38.5t-152.5 110.5t-90 171t-29.5 220z" />
<glyph unicode="d" horiz-adv-x="1071" d="M80 502q0 106 23.5 211.5t76.5 188.5t138 134t208 51q78 0 146.5 -23.5t126.5 -64.5v496q31 10 65 10q18 0 36 -3t32 -7v-1495q-25 -10 -58 -10q-14 0 -28.5 3t-24.5 7l-12 123h-2q-66 -70 -143.5 -106.5t-165.5 -36.5q-106 0 -184 40.5t-130.5 112.5t-78 166t-25.5 203z M217 508q0 -68 12.5 -142.5t45 -136t88 -101.5t141.5 -40q84 0 162.5 38t132.5 103v658q-55 47 -124 69.5t-140 22.5q-90 0 -150.5 -40t-97.5 -106.5t-53.5 -151.5t-16.5 -173z" />
<glyph unicode="e" horiz-adv-x="987" d="M80 528q0 111 27.5 212.5t84 178t140.5 122.5t196 46q100 0 172 -38.5t117 -105t65.5 -157t20.5 -190.5v-49.5t-2 -48.5h-686q2 -88 25.5 -164t68.5 -131.5t115 -87t166 -31.5q70 0 133 8t121 23q8 -20 8 -43q0 -29 -10 -54q-59 -18 -130 -28t-134 -10 q-123 0 -213.5 35.5t-147.5 97.5q-68 74 -102.5 180t-34.5 235zM215 596h555q0 70 -7 140.5t-31.5 126t-74 90t-135.5 34.5q-74 0 -130 -31.5t-94 -86t-58.5 -125t-24.5 -148.5z" />
<glyph unicode="f" horiz-adv-x="761" d="M47 1012q0 8 1 21.5t5 21.5l185 12v35q0 111 22.5 188.5t85.5 141.5q45 45 108.5 66.5t139.5 21.5q41 0 81 -8.5t68 -18.5q7 -16 7 -39q0 -10 -1 -24.5t-6 -22.5q-23 6 -59.5 11t-69.5 5q-117 0 -174 -63q-45 -47 -57 -111.5t-12 -146.5v-35h288q4 -8 6.5 -23.5 t2.5 -25.5q0 -12 -2 -28.5t-7 -26.5h-288v-963q-31 -10 -66 -10q-37 0 -67 10v963h-185q-4 8 -5 23t-1 26z" />
<glyph unicode="g" horiz-adv-x="1050" d="M80 508q0 137 39 244.5t108.5 182.5t168 113.5t216.5 38.5q31 0 70 -4t79 -12t79 -19.5t71 -23.5v-850q0 -57 -2 -119.5t-11 -123t-25.5 -118t-43.5 -104.5q-33 -57 -77.5 -98t-97 -67.5t-111 -39t-117.5 -12.5q-137 0 -233 33q-4 10 -6.5 23.5t-2.5 25.5q0 10 2 24.5 t7 24.5q47 -12 101 -20t109 -8q195 0 285 114.5t90 325.5v86q-59 -63 -137 -94t-147 -31q-102 0 -179 38t-129.5 105.5t-79 160.5t-26.5 204zM217 514q0 -86 16.5 -159.5t51 -128t89 -86t130.5 -31.5q78 0 150.5 34.5t123.5 87.5v732q-55 16 -97 21t-81 5q-98 0 -170 -38 t-119 -103.5t-70.5 -151.5t-23.5 -182z" />
<glyph unicode="h" horiz-adv-x="1091" d="M139 0v1495q14 4 32.5 7t33.5 3q14 0 33.5 -3t33.5 -7v-526q82 63 172.5 90.5t165.5 27.5q78 0 152 -26.5t119 -79.5q49 -59 63 -138t14 -163v-680q-31 -10 -61 -10q-37 0 -72 10v647q0 170 -52 249t-195 79q-78 0 -162 -36t-144 -83v-856q-37 -10 -69 -10q-33 0 -64 10z " />
<glyph unicode="i" horiz-adv-x="428" d="M127 1366q0 37 25.5 62.5t60.5 25.5t61.5 -25.5t26.5 -62.5t-26.5 -63.5t-61.5 -26.5t-60.5 26.5t-25.5 63.5zM147 0v1067q12 4 30 7t34 3t36.5 -3t33.5 -7v-1067q-31 -10 -68 -10q-35 0 -66 10z" />
<glyph unicode="j" horiz-adv-x="464" d="M-154 -451q0 10 2 24.5t7 23.5q14 -4 32.5 -5.5t32.5 -1.5q80 0 131 29t81 76t41 110.5t11 135.5v1126q31 10 66 10q14 0 33.5 -3t33.5 -7v-1075q0 -139 -25.5 -235.5t-90.5 -166.5q-41 -43 -108.5 -67.5t-145.5 -24.5q-27 0 -46.5 2t-45.5 6q-4 10 -6.5 21.5t-2.5 21.5z M164 1366q0 37 25.5 62.5t60.5 25.5t61.5 -25.5t26.5 -62.5t-26.5 -63.5t-61.5 -26.5t-60.5 26.5t-25.5 63.5z" />
<glyph unicode="k" horiz-adv-x="964" d="M139 0v1495q31 10 68 10q18 0 33.5 -3t31.5 -7v-936l346 324q55 53 84 98t37 86q10 4 29.5 7t34.5 3q14 0 31.5 -3t27.5 -7q-6 -57 -42 -122.5t-107 -131.5l-191 -176l404 -637q-10 -4 -31 -7t-37 -3q-37 0 -82 10l-348 549l-156 -146v-403q-35 -10 -71 -10 q-12 0 -29.5 3t-32.5 7z" />
<glyph unicode="l" horiz-adv-x="419" d="M143 0v1495q14 4 30.5 7t37.5 3q35 0 65 -10v-1495q-37 -10 -69 -10q-33 0 -64 10z" />
<glyph unicode="m" horiz-adv-x="1755" d="M139 0v1067q20 8 56 8q14 0 29.5 -2t25.5 -6l10 -106h2q86 70 177 98t169 28t148.5 -26.5t115.5 -79.5q6 -6 11.5 -13t9.5 -16q82 66 181.5 100.5t199.5 34.5q78 0 151.5 -26.5t118.5 -79.5q49 -59 63.5 -138t14.5 -163v-682q-16 -4 -30.5 -6t-30.5 -2q-18 0 -36 3t-36 7 v647q0 170 -52.5 249t-195.5 79q-37 0 -79 -9.5t-83 -24.5t-79.5 -34.5t-69.5 -42.5q12 -43 16 -90t4 -94v-680q-35 -10 -61 -10q-37 0 -72 10v647q0 84 -11 146.5t-39 102.5t-74 59.5t-118 19.5q-78 0 -160.5 -36t-142.5 -83v-856q-37 -10 -73 -10q-33 0 -60 10z" />
<glyph unicode="n" horiz-adv-x="1091" d="M139 0v1067q10 4 26.5 6t27.5 2q16 0 31.5 -2t25.5 -6l10 -106h2q86 70 177 98t169 28t153 -26.5t120 -79.5q49 -59 63 -138t14 -163v-682q-12 -4 -29.5 -6t-35.5 -2q-33 0 -68 10v649q0 152 -41 228q-27 49 -77 73.5t-129 24.5q-78 0 -162 -36t-144 -83v-856 q-37 -10 -69 -10q-33 0 -64 10z" />
<glyph unicode="o" horiz-adv-x="1040" d="M80 532q0 276 121 415.5t321 139.5q201 0 320 -137t119 -413t-120 -416.5t-321 -140.5t-320.5 138t-119.5 414zM219 535q0 -227 77 -341t224 -114t224 114t77 341q0 452 -298 452h-1q-147 0 -225 -112.5t-78 -339.5z" />
<glyph unicode="p" horiz-adv-x="1067" d="M139 -481v1548q20 8 56 8q16 0 29.5 -2t23.5 -6l12 -113h2q59 61 141 97t172 36q98 0 180.5 -39.5t135.5 -117.5q45 -66 70.5 -156t25.5 -203q0 -154 -45 -270.5t-127 -189.5q-59 -53 -146 -82t-177 -29q-63 0 -120 9t-100 26v-516q-16 -4 -30.5 -7.5t-36.5 -3.5 q-39 0 -66 11zM272 139q41 -18 96.5 -28.5t108.5 -10.5q166 0 268.5 112.5t102.5 352.5q0 190 -73 302t-214 112q-82 0 -158.5 -34t-130.5 -101v-705z" />
<glyph unicode="q" horiz-adv-x="1046" d="M80 498q0 287 138 438t386 151q74 0 150.5 -14t152.5 -41v-1513q-35 -10 -67 -11q-39 0 -66 11v581q-68 -66 -146.5 -93t-148.5 -27q-100 0 -175 36.5t-125 104t-74.5 163t-24.5 214.5zM217 506q0 -74 11.5 -147.5t43 -134t87 -98.5t143.5 -38q72 0 146.5 32t125.5 85 v756q-41 12 -85 19t-89 7q-104 0 -178 -41t-119 -107.5t-65.5 -153.5t-20.5 -179z" />
<glyph unicode="r" horiz-adv-x="684" d="M139 0v1067q10 4 22.5 6t28.5 2q12 0 27.5 -2t28.5 -6l10 -131h2q33 29 77 54.5t92 45t97 33.5t92 18q4 -10 6.5 -24.5t2.5 -28.5q0 -16 -2 -33.5t-7 -31.5q-90 -12 -181 -45t-163 -88v-836q-35 -10 -67 -10q-31 0 -66 10z" />
<glyph unicode="s" horiz-adv-x="815" d="M84 84q0 10 2 27.5t6 27.5q57 -23 132 -39t143 -16q117 0 184 48t67 147q0 43 -12 74.5t-37.5 55t-67.5 44t-104 43.5q-84 31 -141 64.5t-92 71.5t-50.5 82t-15.5 97q0 70 28 122t76 87t112.5 51t140.5 16q51 0 109.5 -8t97.5 -20q4 -14 6 -26.5t2 -22.5q0 -12 -2 -30.5 t-6 -29.5q-51 16 -103.5 24.5t-105.5 8.5q-111 0 -172.5 -41t-61.5 -127q0 -37 11.5 -65.5t37 -52t68.5 -45t106 -46.5q57 -23 110.5 -46t94.5 -58t65.5 -87t24.5 -130t-27.5 -135.5t-76.5 -95.5t-114.5 -56t-141.5 -18q-78 0 -152.5 12t-130.5 35q-10 25 -10 57z" />
<glyph unicode="t" horiz-adv-x="765" d="M25 1010q0 8 1 22.5t5 22.5l184 12v279q27 10 66 10q16 0 35.5 -3t31.5 -7v-279h301q4 -8 6 -25.5t2 -25.5q0 -10 -2 -26.5t-6 -26.5h-301v-648q0 -123 39 -176t135 -53q53 0 101.5 7t83.5 18q4 -8 6 -24t2 -26q0 -27 -8 -51q-41 -14 -94.5 -22t-98.5 -8 q-154 0 -226.5 75.5t-72.5 247.5v660h-184q-4 8 -5 22t-1 25z" />
<glyph unicode="u" horiz-adv-x="1058" d="M133 395v672q31 10 66 10q23 0 39 -3t28 -7v-655q0 -74 8.5 -135.5t36 -104.5t79.5 -66.5t138 -23.5q82 0 133.5 23.5t80 66.5t40 104.5t11.5 139.5v651q12 4 31.5 7t35.5 3q35 0 66 -10v-661q0 -233 -98.5 -329.5t-301.5 -96.5q-207 0 -300 95t-93 320z" />
<glyph unicode="v" horiz-adv-x="962" d="M43 1067q12 4 30.5 7t32.5 3q35 0 70 -10q2 -53 11 -110.5t30 -112.5l266 -676h4l258 676q23 53 33 111.5t10 111.5q10 4 31 7t41 3q10 0 28 -2t32 -6q-2 -55 -14.5 -120.5t-43.5 -141.5l-321 -807q-31 -10 -56 -10q-31 0 -57 10l-332 807q-29 70 -41 136.5t-12 123.5z " />
<glyph unicode="w" horiz-adv-x="1476" d="M57 1069q12 4 33 6t37 2q31 0 61 -10q2 -55 11 -111.5t22 -107.5l187 -666h2l266 887q10 4 28.5 5t28.5 1t28.5 -1t29.5 -5l251 -887h2l205 664q16 57 27.5 111.5t15.5 109.5q10 4 32 7t36 3t31.5 -3t27.5 -7q0 -53 -11 -105.5t-28 -105.5l-274 -856q-12 -4 -31.5 -7 t-32.5 -3q-14 0 -33.5 3t-29.5 7l-246 827h-4l-258 -827q-14 -4 -32.5 -7t-30.5 -3t-30 3t-32 7l-254 844q-16 53 -24.5 110.5t-10.5 114.5z" />
<glyph unicode="x" horiz-adv-x="1011" d="M57 0q6 51 23.5 89t50.5 81l297 391l-254 336q-43 57 -59.5 100t-16.5 74q12 4 34 6t38 2q18 0 36.5 -2t31.5 -6q4 -29 17 -63.5t48 -83.5l201 -275l207 271q37 47 50 82.5t19 68.5q12 4 29.5 6t38.5 2q10 0 32.5 -2t32.5 -6q-2 -43 -21.5 -84t-53.5 -88l-252 -334 l286 -389q35 -47 54.5 -86t27.5 -90q-16 -4 -39.5 -7t-40.5 -3q-20 0 -33.5 3t-29.5 7q-10 41 -22.5 76t-43.5 76l-237 323l-252 -336q-35 -45 -44 -71.5t-15 -67.5q-37 -10 -66 -10q-16 0 -39.5 3t-34.5 7z" />
<glyph unicode="y" horiz-adv-x="1073" d="M139 375v692q12 4 29.5 7t34.5 3q18 0 36.5 -3t32.5 -7v-670q0 -74 8.5 -134t36.5 -101q49 -72 166 -72q96 0 180.5 42t137.5 93v842q14 4 32.5 7t36.5 3q16 0 34 -3t30 -7v-889q0 -150 -13.5 -260.5t-66.5 -206.5q-31 -55 -75 -95t-96 -66.5t-107.5 -40t-110.5 -13.5 q-80 0 -138.5 8.5t-107.5 24.5q-4 10 -6 23.5t-2 25.5q0 10 2 25.5t6 25.5q47 -14 103.5 -23t130.5 -9q170 0 259 115.5t89 326.5v72q-78 -70 -163 -100.5t-165 -30.5q-86 0 -152.5 22.5t-109.5 75.5q-47 57 -59.5 135t-12.5 162z" />
<glyph unicode="z" horiz-adv-x="956" d="M96 41q0 27 8 51l598 871h-571q-4 10 -7 26.5t-3 26.5q0 8 3 25.5t7 25.5h723q4 -10 5 -21.5t1 -21.5q0 -6 -2 -19.5t-8 -31.5l-596 -869h592q4 -10 6 -29.5t2 -29.5t-2 -22.5t-6 -22.5h-744q-4 6 -5 18.5t-1 22.5z" />
<glyph unicode="{" horiz-adv-x="688" d="M96 586q0 20 4 41q84 8 112 63t30 166l6 322q4 129 82 199.5t194 70.5h82q4 -8 7 -20.5t3 -22.5q0 -25 -10 -45h-61q-88 0 -128 -54.5t-42 -134.5l-6 -305q-2 -59 -9.5 -105t-24 -80t-46 -56.5t-74.5 -36.5v-4q41 -14 69.5 -34t47 -51.5t27 -78.5t10.5 -115l6 -305 q2 -78 42 -133t128 -55h61q10 -20 10 -45q0 -10 -3 -22.5t-7 -20.5h-82q-117 0 -194.5 69.5t-81.5 200.5l-6 321q-2 106 -30 165t-112 65q-4 20 -4 41z" />
<glyph unicode="|" horiz-adv-x="450" d="M166 0v1495q27 10 59 10q33 0 60 -10v-1495q-27 -10 -60 -10t-59 10z" />
<glyph unicode="}" horiz-adv-x="688" d="M72 -233q0 25 10 45h61q88 0 128 55t42 133l6 305q2 68 10.5 115t27 78.5t47 51t69.5 34.5v4q-90 27 -120.5 92t-33.5 186l-6 305q-2 80 -42 134.5t-128 54.5h-61q-10 20 -10 45q0 10 3 22.5t7 20.5h82q117 0 194.5 -70.5t81.5 -199.5l6 -322q2 -111 30 -166t112 -63 q4 -20 4 -41q0 -20 -4 -41q-84 -6 -111.5 -64.5t-30.5 -165.5l-6 -321q-4 -131 -81.5 -200.5t-194.5 -69.5h-82q-4 8 -7 20.5t-3 22.5z" />
<glyph unicode="~" horiz-adv-x="1044" d="M113 520q47 59 112.5 99t136.5 40q51 0 97.5 -21.5t87.5 -46t79 -46t76 -21.5q47 0 95.5 31t81.5 72q18 -10 36.5 -27.5t28.5 -42.5q-47 -59 -112.5 -99t-137.5 -40q-53 0 -98 21.5t-86 46t-79 46t-77 21.5q-47 0 -95 -30.5t-81 -71.5q-18 10 -36.5 27.5t-28.5 41.5z" />
<glyph unicode="&#xa1;" horiz-adv-x="489" d="M143 971q0 -41 28 -68.5t69 -27.5t68.5 27.5t27.5 68.5t-27.5 68.5t-68.5 27.5t-69 -27.5t-28 -68.5zM166 -337q14 -4 37.5 -7.5t40.5 -3.5q16 0 38.5 3t36.5 8l-24 999q-10 4 -26.5 6t-26.5 2t-26.5 -2t-27.5 -6z" />
<glyph unicode="&#xa2;" d="M172 520q0 113 25.5 209t77 170t128 121t177.5 61v189q12 4 28.5 6t28.5 2q14 0 29.5 -2t25.5 -6v-185q47 -4 106.5 -17t102.5 -32q8 -22 8 -51q0 -31 -6 -51q-47 18 -102.5 30.5t-108.5 16.5v-893q51 2 103.5 10t99.5 21q4 -10 6 -20.5t2 -22.5q0 -18 -3 -31.5t-7 -24.5 q-37 -16 -92.5 -25t-108.5 -13v-175q-10 -4 -25.5 -6t-29.5 -2q-12 0 -28.5 2t-28.5 6v179q-209 25 -308.5 169t-99.5 365zM311 524q0 -80 14.5 -151.5t46 -128t83 -95t125.5 -53.5v875q-74 -16 -124 -58.5t-83 -100.5t-47.5 -132t-14.5 -156z" />
<glyph unicode="&#xa3;" d="M164 47q0 14 2 30.5t6 26.5q172 98 172 310v252h-168q-4 10 -7 26.5t-3 28.5t3 26.5t7 24.5h168v197q0 98 22.5 178t69.5 137t122 89t177 32q61 0 116.5 -10.5t109.5 -26.5q8 -18 8 -51q0 -23 -6 -43q-51 16 -107.5 25.5t-105.5 9.5q-76 0 -126.5 -26t-81 -70t-43 -103 t-12.5 -127v-211h306q4 -10 7 -24.5t3 -26.5t-3 -28.5t-7 -26.5h-306v-232q0 -115 -36.5 -196.5t-128.5 -128.5v-3h645q4 -10 5 -28.5t1 -32.5q0 -10 -1 -22.5t-5 -22.5h-795q-4 10 -6 23.5t-2 23.5z" />
<glyph unicode="&#xa4;" horiz-adv-x="1044" d="M199 451l106 106q-23 31 -33 70t-10 73q0 35 10.5 74t32.5 70l-106 106q25 45 67 68l103 -103q33 23 72.5 34.5t80.5 11.5t81 -11.5t73 -34.5l102 103q43 -23 68 -68l-107 -106q23 -31 33 -70t10 -74t-10 -73.5t-33 -69.5l107 -106q-25 -45 -68 -68l-102 102 q-33 -23 -73 -34t-81 -11t-81 11.5t-72 33.5l-103 -102q-43 23 -67 68zM369 700q0 -76 40.5 -122t112.5 -46t113 46.5t41 121.5q0 76 -41 122t-113 46t-112.5 -46t-40.5 -122z" />
<glyph unicode="&#xa5;" d="M90 1382q12 4 36 7.5t34 3.5q14 0 35.5 -3.5t31.5 -7.5q4 -59 19.5 -116.5t36.5 -98.5l276 -555l272 553q27 53 42.5 106.5t17.5 112.5q10 4 31.5 7.5t35.5 3.5q16 0 36 -3t30 -8q-2 -63 -21.5 -128.5t-54.5 -135.5l-188 -368h229q4 -10 7 -24.5t3 -27.5q0 -12 -3 -28.5 t-7 -26.5h-284l-62 -121h346q4 -10 7 -24.5t3 -26.5t-3 -28.5t-7 -26.5h-362v-418q-12 -4 -33 -7t-37 -3t-36.5 3t-33.5 7v418h-372q-4 10 -7.5 26.5t-3.5 28.5t3.5 26.5t7.5 24.5h356l-61 121h-295q-4 10 -7.5 26.5t-3.5 28.5t3.5 26.5t7.5 25.5h241l-188 370 q-33 66 -53.5 127.5t-24.5 132.5z" />
<glyph unicode="&#xa6;" horiz-adv-x="450" d="M166 0v496q27 10 59 10q33 0 60 -10v-496q-27 -10 -60 -10t-59 10zM166 999v496q27 10 59 10q33 0 60 -10v-496q-27 -10 -60 -10t-59 10z" />
<glyph unicode="&#xa7;" horiz-adv-x="1021" d="M203 729q0 63 38 118.5t109 92.5q-72 35 -103.5 92.5t-31.5 124.5q0 63 25.5 109.5t69.5 77t101.5 46t118.5 15.5q63 0 119 -9.5t88 -19.5q4 -10 5 -23.5t1 -25.5q0 -10 -1 -27.5t-5 -27.5q-47 14 -97 22.5t-95 8.5q-86 0 -148.5 -33t-62.5 -111q0 -43 14 -69.5t45 -48 t78 -41t113 -44.5q111 -43 178 -103.5t67 -162.5q0 -127 -141 -225q66 -47 93.5 -101.5t27.5 -113.5q0 -135 -94 -202.5t-244 -67.5q-63 0 -133 9t-119 27q-8 18 -8 58q0 8 2 23.5t6 27.5q53 -20 122 -32.5t128 -12.5q39 0 80 6t72.5 24.5t52 51.5t20.5 86q0 39 -20.5 68.5 t-54 54t-77.5 46t-89 42.5q-127 57 -188.5 114.5t-61.5 155.5zM319 741q0 -66 40 -103.5t124 -76.5q25 -12 56.5 -26.5t70.5 -30.5q53 33 80 73t27 99q0 66 -40 104.5t-108 67.5q-35 16 -70.5 29.5t-66.5 23.5q-51 -23 -82 -64.5t-31 -95.5z" />
<glyph unicode="&#xa8;" horiz-adv-x="665" d="M55 1341q0 41 28 70t69 29t68.5 -29t27.5 -70t-27.5 -68.5t-68.5 -27.5t-69 27.5t-28 68.5zM420 1341q0 41 27.5 70t68.5 29t68.5 -29t27.5 -70t-27.5 -68.5t-68.5 -27.5t-68.5 27.5t-27.5 68.5z" />
<glyph unicode="&#xa9;" horiz-adv-x="1638" d="M119 694q0 147 54 276.5t148.5 226.5t222.5 152.5t275 55.5q145 0 273.5 -55.5t223.5 -152.5t150.5 -226.5t55.5 -276.5t-55.5 -277t-150.5 -227.5t-223 -153.5t-274 -56q-147 0 -275 56t-222.5 153.5t-148.5 227.5t-54 277zM229 692q0 -127 45 -238.5t125 -194.5 t188.5 -131t233.5 -48t233.5 48t188.5 131t126 194.5t46 238.5t-46 238.5t-126 194.5t-188.5 131.5t-233.5 48.5t-233.5 -48.5t-188.5 -131.5t-125 -194.5t-45 -238.5zM528 692q0 168 87 265.5t243 97.5q45 0 87 -8.5t75 -22.5q4 -18 5 -45t-3 -47q-80 29 -156 29 q-117 0 -170 -74t-53 -193q0 -123 55.5 -194.5t171.5 -71.5q35 0 72 6t70 19q4 -12 6 -28.5t2 -33.5q0 -16 -2 -24q-35 -14 -79 -21.5t-79 -7.5q-170 0 -251 95t-81 259z" />
<glyph unicode="&#xaa;" horiz-adv-x="665" d="M66 860q0 68 24.5 111t65.5 68.5t93 34.5t105 9q23 0 54.5 -2t56.5 -6v55q0 119 -143 119q-41 0 -94.5 -7t-90.5 -17q-2 10 -3 21t-1 20q0 6 1 18t3 23q47 14 98.5 21t96.5 7q117 0 185.5 -46t68.5 -161v-292q0 -39 1 -82t3 -86q-10 -2 -23.5 -3t-23.5 -1t-25.5 1 t-28.5 3q-4 14 -7 31.5t-5 39.5q-45 -49 -92 -66.5t-94 -17.5q-102 0 -163.5 56.5t-61.5 148.5zM188 868q0 -61 32 -90.5t91 -29.5q41 0 84 19t70 52v166q-27 4 -55.5 6t-51.5 2q-170 0 -170 -125z" />
<glyph unicode="&#xab;" horiz-adv-x="917" d="M68 477l325 357q41 -18 76 -56l-236 -301l236 -305q-33 -41 -76 -55zM455 477l325 357q41 -18 76 -56l-236 -301l236 -305q-33 -41 -76 -55z" />
<glyph unicode="&#xac;" horiz-adv-x="1044" d="M150 539q0 12 3 26.5t7 24.5h723v-400q-10 -4 -25.5 -5t-28.5 -1q-12 0 -28.5 1t-26.5 5v293h-614q-4 10 -7 26.5t-3 29.5z" />
<glyph unicode="&#xad;" horiz-adv-x="583" d="M82 535q0 12 3 28.5t7 24.5h400q4 -8 7 -24.5t3 -28.5q0 -29 -10 -56h-400q-10 27 -10 56z" />
<glyph unicode="&#xae;" horiz-adv-x="1638" d="M119 694q0 147 54 276.5t148.5 226.5t222.5 152.5t275 55.5q145 0 273.5 -55.5t223.5 -152.5t150.5 -226.5t55.5 -276.5t-55.5 -277t-150.5 -227.5t-223 -153.5t-274 -56q-147 0 -275 56t-222.5 153.5t-148.5 227.5t-54 277zM229 692q0 -127 45 -238.5t125 -194.5 t188.5 -131t233.5 -48t233.5 48t188.5 131t126 194.5t46 238.5t-46 238.5t-126 194.5t-188.5 131.5t-233.5 48.5t-233.5 -48.5t-188.5 -131.5t-125 -194.5t-45 -238.5zM610 373v661q20 0 48 1t56.5 2t53.5 1h41q113 0 181.5 -46t68.5 -156q0 -66 -32 -121.5t-97 -77.5 l155 -264q-16 -6 -32.5 -7t-24.5 -1q-10 0 -29.5 1t-33.5 5l-138 252h-108v-250q-14 -4 -28.5 -6t-22.5 -2t-25.5 2t-32.5 6zM719 719h98q129 0 129 117q0 61 -36 83.5t-95 22.5h-96v-223z" />
<glyph unicode="&#xaf;" horiz-adv-x="665" d="M66 1341q0 29 6 60h524q6 -25 6 -60q0 -33 -6 -57h-524q-6 31 -6 57z" />
<glyph unicode="&#xb0;" horiz-adv-x="585" d="M102 1214q0 80 55.5 135.5t135.5 55.5t135 -55.5t55 -135.5t-55 -135t-135 -55t-135.5 55.5t-55.5 134.5zM188 1214q0 -43 29 -74.5t76 -31.5t75.5 31.5t28.5 74.5q0 45 -28.5 76t-75.5 31t-76 -30.5t-29 -76.5z" />
<glyph unicode="&#xb1;" horiz-adv-x="1044" d="M150 55q0 12 3 26.5t7 24.5h723q4 -10 7 -24.5t3 -26.5t-3 -28.5t-7 -26.5h-723q-4 10 -7 26.5t-3 28.5zM150 752q0 12 3 27.5t7 25.5h311v356q10 4 26.5 7t28.5 3t27.5 -3t26.5 -7v-356h303q4 -10 7 -25.5t3 -27.5t-3 -27.5t-7 -26.5h-303v-356q-10 -4 -25.5 -7 t-28.5 -3q-12 0 -28.5 3t-26.5 7v356h-311q-4 10 -7 25.5t-3 28.5z" />
<glyph unicode="&#xb2;" horiz-adv-x="702" d="M96 774v12.5t2 16.5q51 49 106.5 104.5t114.5 116.5q78 82 126.5 157.5t48.5 161.5q0 72 -44 104t-110 32q-53 0 -110.5 -13.5t-96.5 -29.5q-4 12 -5 29.5t-1 31.5v13.5t2 13.5q41 18 105.5 31.5t123.5 13.5q53 0 100.5 -14.5t83.5 -43t56 -69.5t20 -94q0 -49 -13 -93.5 t-40.5 -89.5t-68.5 -94t-97 -106l-151 -156h360q4 -16 4 -29.5v-21.5v-16.5t-4 -24.5h-502q-10 35 -10 57z" />
<glyph unicode="&#xb3;" horiz-adv-x="702" d="M98 774q0 25 6 49q45 -14 88.5 -23t96.5 -9q84 0 145.5 43t61.5 135q0 86 -60.5 120.5t-140.5 34.5h-37q-2 10 -3 22.5t-1 24.5q0 25 4 46h33q72 0 121 32.5t49 110.5q0 68 -44 95.5t-104 27.5q-53 0 -93 -10.5t-87 -26.5q-4 10 -4 21.5v21.5q0 20 4 41q49 18 92 28.5 t103 10.5q45 0 91 -12.5t81 -37t57.5 -62.5t22.5 -89q0 -59 -34 -110.5t-104 -79.5v-4q84 -18 128 -76.5t44 -128.5q0 -66 -24.5 -115t-67.5 -82t-101.5 -50t-123.5 -17q-63 0 -108.5 9t-88.5 23q-2 8 -2 37z" />
<glyph unicode="&#xb4;" horiz-adv-x="665" d="M119 1315l385 241q23 -25 42 -57.5t32 -60.5l-412 -205q-14 16 -26.5 37.5t-20.5 44.5z" />
<glyph unicode="&#xb6;" horiz-adv-x="1067" d="M127 1065q0 70 24.5 131t68.5 107.5t104.5 74t130.5 27.5h465v-1647q-10 -4 -30 -7t-34 -3t-34.5 3t-30.5 7v1538h-197v-1538q-35 -10 -66 -10q-29 0 -63 10v969q-80 6 -142.5 35t-105.5 75t-66.5 104t-23.5 124z" />
<glyph unicode="&#xb7;" horiz-adv-x="413" d="M111 606q0 41 27.5 68.5t68.5 27.5t68.5 -27.5t27.5 -68.5t-27.5 -68.5t-68.5 -27.5t-68.5 27.5t-27.5 68.5z" />
<glyph unicode="&#xb8;" horiz-adv-x="665" d="M207 -444q0 18 1 42.5t5 41.5q29 -8 60.5 -12.5t56.5 -4.5q47 0 74.5 23.5t27.5 70.5q0 43 -23.5 63.5t-82.5 20.5h-93l19 195h84l-6 -111h35q84 0 133 -40.5t49 -118.5q0 -80 -52.5 -135.5t-140.5 -55.5q-41 0 -79.5 5t-67.5 16z" />
<glyph unicode="&#xb9;" horiz-adv-x="702" d="M74 1380l278 172q10 4 25.5 5.5t25.5 1.5q23 0 52 -7v-839q-41 -6 -64 -6q-25 0 -57 6v719l-219 -132q-12 16 -24.5 39t-16.5 41z" />
<glyph unicode="&#xba;" horiz-adv-x="665" d="M35 989q0 174 84 260t213 86t214 -86t85 -260q0 -170 -85 -252t-214 -82t-213 82t-84 252zM158 993q0 -135 48 -193.5t126 -58.5t127 58.5t49 193.5t-49 195.5t-127 60.5t-126 -60.5t-48 -195.5z" />
<glyph unicode="&#xbb;" horiz-adv-x="917" d="M61 172q33 -41 76 -55l325 360l-325 357q-41 -18 -76 -56l236 -301zM449 172q33 -41 76 -55l325 360l-325 357q-41 -18 -76 -56l236 -301z" />
<glyph unicode="&#xbc;" horiz-adv-x="1611" d="M74 1217l278 172q10 4 25.5 5t25.5 1q23 0 52 -6v-840q-41 -6 -64 -6q-25 0 -57 6v719l-219 -131q-12 16 -24.5 38.5t-16.5 41.5zM262 -59l903 1532q16 4 36 5t40 1q33 0 57 -6l-899 -1532q-18 -4 -35.5 -5.5t-39.5 -1.5q-12 0 -31 1.5t-31 5.5zM958 227v16.5t5 20.5 l241 578q12 2 34 3t36 1q10 0 28.5 -1t26.5 -3l-242 -568h232v170q10 4 27.5 6.5t29.5 2.5q10 0 27.5 -2t28.5 -5v-172h106q4 -16 4 -43q0 -29 -4 -45h-106v-186q-10 -4 -28 -5t-28 -1t-28.5 1t-28.5 5v186h-356q-4 20 -5 41z" />
<glyph unicode="&#xbd;" horiz-adv-x="1611" d="M74 1216l278 172q10 4 25.5 5.5t25.5 1.5q23 0 52 -7v-839q-41 -6 -64 -6q-25 0 -57 6v719l-219 -132q-12 16 -24.5 39t-16.5 41zM262 -59l903 1532q16 4 35.5 5t40.5 1q33 0 57 -6l-899 -1532q-18 -4 -35.5 -5.5t-40.5 -1.5q-12 0 -30.5 1.5t-30.5 5.5zM1009 57v12.5 t2 16.5q51 49 106.5 104.5t114.5 116.5q78 82 126.5 157.5t48.5 161.5q0 72 -44 104t-110 32q-53 0 -110.5 -13.5t-96.5 -29.5q-4 12 -5 29.5t-1 31.5v13.5t2 13.5q41 18 105.5 31.5t123.5 13.5q53 0 100.5 -14.5t83.5 -43t56 -69.5t20 -94q0 -49 -13 -93.5t-40.5 -89.5 t-68.5 -94t-97 -106l-151 -156h360q4 -16 4 -29.5v-21.5v-16.5t-4 -24.5h-502q-10 35 -10 57z" />
<glyph unicode="&#xbe;" horiz-adv-x="1611" d="M57 606q0 25 6 49q45 -14 88.5 -23t96.5 -9q84 0 145.5 43t61.5 135q0 86 -60.5 120.5t-140.5 34.5h-37q-2 10 -3 22.5t-1 25.5q0 25 4 45h33q72 0 121 32.5t49 110.5q0 68 -44 95.5t-104 27.5q-53 0 -93 -10.5t-87 -26.5q-4 10 -4 21.5v21.5q0 20 4 41q49 18 92 28.5 t103 10.5q45 0 91 -12.5t81 -37t57.5 -62.5t22.5 -89q0 -59 -34 -110.5t-104 -79.5v-4q84 -18 128 -76.5t44 -128.5q0 -66 -24.5 -115t-67.5 -82t-101 -50t-124 -17q-63 0 -108.5 9t-88.5 23q-2 8 -2 37zM262 -59l903 1532q16 4 36 5t40 1q33 0 57 -6l-899 -1532 q-18 -4 -35.5 -5.5t-39.5 -1.5q-12 0 -31 1.5t-31 5.5zM958 227v16.5t5 20.5l241 578q12 2 34 3t36 1q10 0 28.5 -1t26.5 -3l-242 -568h232v170q10 4 27.5 6.5t29.5 2.5q10 0 27.5 -2t28.5 -5v-172h106q4 -16 4 -43q0 -29 -4 -45h-106v-186q-10 -4 -28 -5t-28 -1t-28.5 1 t-28.5 5v186h-356q-4 20 -5 41z" />
<glyph unicode="&#xbf;" horiz-adv-x="884" d="M123 -34q0 74 13.5 128t43 98t74.5 80t107 68q57 31 92 54.5t54.5 47t25.5 52.5t6 70v98q14 4 28.5 7t32.5 3q37 0 64 -10v-98q0 -51 -9.5 -91t-34 -74t-67.5 -67t-110 -69q-47 -27 -81 -53.5t-55.5 -60.5t-30.5 -77t-9 -100q0 -127 70.5 -180.5t189.5 -53.5 q63 0 130.5 13.5t114.5 29.5q8 -16 9 -41q0 -29 -11 -49q-47 -23 -120.5 -36t-141.5 -13q-180 0 -282.5 83t-102.5 241zM502 971q0 41 27.5 68.5t68.5 27.5t69 -27.5t28 -68.5t-28 -68.5t-69 -27.5t-68.5 27.5t-27.5 68.5z" />
<glyph unicode="&#xc0;" horiz-adv-x="1206" d="M61 0l471 1384q37 10 70 11q35 0 66 -11l497 -1384q-27 -10 -71 -10q-18 0 -39 3t-35 7l-125 358h-571l-121 -360q-10 -4 -31.5 -6t-38.5 -2q-37 0 -72 10zM283 1688q12 29 31.5 61.5t41.5 56.5l385 -241q-8 -23 -20 -44.5t-27 -37.5zM358 467h498l-190 543 q-16 41 -33 97t-31 110q-16 -53 -32.5 -109.5t-30.5 -97.5z" />
<glyph unicode="&#xc1;" horiz-adv-x="1206" d="M61 0l471 1384q37 10 70 11q35 0 66 -11l497 -1384q-27 -10 -71 -10q-18 0 -39 3t-35 7l-125 358h-571l-121 -360q-10 -4 -31.5 -6t-38.5 -2q-37 0 -72 10zM358 467h498l-190 543q-16 41 -33 97t-31 110q-16 -53 -32.5 -109.5t-30.5 -97.5zM457 1565l385 241 q23 -25 42 -57.5t32 -60.5l-412 -205q-14 16 -26.5 37.5t-20.5 44.5z" />
<glyph unicode="&#xc2;" horiz-adv-x="1206" d="M61 0l471 1384q37 10 70 11q35 0 66 -11l497 -1384q-27 -10 -71 -10q-18 0 -39 3t-35 7l-125 358h-571l-121 -360q-10 -4 -31.5 -6t-38.5 -2q-37 0 -72 10zM309 1532l213 293q18 4 40.5 5t39.5 1q16 0 39.5 -1t42.5 -5l211 -293q-12 -12 -38 -26.5t-46 -22.5l-197 229 h-22l-199 -229q-20 8 -46 22.5t-38 26.5zM358 467h498l-190 543q-16 41 -33 97t-31 110q-16 -53 -32.5 -109.5t-30.5 -97.5z" />
<glyph unicode="&#xc3;" horiz-adv-x="1206" d="M61 0l471 1384q37 10 70 11q35 0 66 -11l497 -1384q-27 -10 -71 -10q-18 0 -39 3t-35 7l-125 358h-571l-121 -360q-10 -4 -31.5 -6t-38.5 -2q-37 0 -72 10zM286 1595q39 72 90.5 114t108.5 42q39 0 71.5 -16.5t62.5 -37t57.5 -36.5t54.5 -16q39 0 70.5 28.5t54.5 73.5 q25 -12 42 -27.5t33 -33.5q-37 -70 -88 -113t-110 -43q-35 0 -69 16.5t-64.5 36t-60 35.5t-56.5 16q-35 0 -67.5 -27.5t-57.5 -70.5q-41 27 -72 59zM358 467h498l-190 543q-16 41 -33 97t-31 110q-16 -53 -32.5 -109.5t-30.5 -97.5z" />
<glyph unicode="&#xc4;" horiz-adv-x="1206" d="M61 0l471 1384q37 10 70 11q35 0 66 -11l497 -1384q-27 -10 -71 -10q-18 0 -39 3t-35 7l-125 358h-571l-121 -360q-10 -4 -31.5 -6t-38.5 -2q-37 0 -72 10zM323 1628q0 41 28 69.5t69 28.5t68.5 -28.5t27.5 -69.5t-27.5 -68.5t-68.5 -27.5t-69 27.5t-28 68.5zM358 467 h498l-190 543q-16 41 -33 97t-31 110q-16 -53 -32.5 -109.5t-30.5 -97.5zM688 1628q0 41 27.5 69.5t68.5 28.5t68.5 -28.5t27.5 -69.5t-27.5 -68.5t-68.5 -27.5t-68.5 27.5t-27.5 68.5z" />
<glyph unicode="&#xc5;" horiz-adv-x="1206" d="M61 0l471 1384q37 10 70 11q35 0 66 -11l497 -1384q-27 -10 -71 -10q-18 0 -39 3t-35 7l-125 358h-571l-121 -360q-10 -4 -31.5 -6t-38.5 -2q-37 0 -72 10zM358 467h498l-190 543q-16 41 -33 97t-31 110q-16 -53 -32.5 -109.5t-30.5 -97.5zM432 1671q0 33 13 62.5t37 53 t54.5 37t67.5 13.5q35 0 65.5 -13.5t54 -37t37 -53t13.5 -62.5t-13.5 -62.5t-37 -53t-54 -37t-65.5 -13.5q-37 0 -67.5 13.5t-54.5 37t-37 53t-13 62.5zM522 1671q0 -37 23.5 -61.5t58.5 -24.5q37 0 58.5 24.5t21.5 61.5t-21.5 61.5t-58.5 24.5q-35 0 -58.5 -24.5 t-23.5 -61.5z" />
<glyph unicode="&#xc6;" horiz-adv-x="1759" d="M20 0l852 1384h750q10 -25 10 -53q0 -33 -10 -53h-584v-508h504q4 -8 7 -24.5t3 -28.5q0 -29 -10 -55h-504v-556h615q10 -24 10 -53q0 -33 -10 -53h-754v358h-506l-215 -358q-25 -4 -42 -7t-40 -3q-18 0 -40.5 3t-35.5 7zM457 467h442v737z" />
<glyph unicode="&#xc7;" horiz-adv-x="1153" d="M117 684q0 162 42 295t119.5 227t191.5 146.5t257 52.5q84 0 164 -13.5t131 -33.5q8 -23 8 -55q0 -10 -1 -24.5t-5 -25.5q-59 16 -136 27.5t-147 11.5q-127 0 -217 -47t-148.5 -129t-85 -192.5t-26.5 -237.5q0 -125 25.5 -233.5t82 -188.5t144.5 -126t213 -46 q82 0 160 11.5t133 29.5q4 -10 5 -23.5t1 -25.5q0 -16 -1 -32.5t-5 -26.5q-55 -18 -131 -31.5t-166 -13.5h-27l-4 -95h35q84 0 133 -40.5t49 -118.5q0 -80 -52 -135.5t-140 -55.5q-41 0 -80 5t-68 16q0 18 1 42.5t6 41.5q29 -8 60.5 -12.5t55.5 -4.5q47 0 75 23.5t28 70.5 q0 43 -23.5 63.5t-83.5 20.5h-92l16 187q-115 14 -207 65t-156.5 137t-99 209t-34.5 285z" />
<glyph unicode="&#xc8;" horiz-adv-x="1034" d="M174 0v1384h723q10 -25 10 -53q0 -33 -10 -53h-584v-508h504q4 -8 7 -24.5t3 -28.5q0 -29 -10 -55h-504v-556h615q10 -24 10 -53q0 -33 -10 -53h-754zM285 1688q12 29 31.5 61.5t41.5 56.5l385 -241q-8 -23 -20 -44.5t-27 -37.5z" />
<glyph unicode="&#xc9;" horiz-adv-x="1034" d="M174 0v1384h723q10 -25 10 -53q0 -33 -10 -53h-584v-508h504q4 -8 7 -24.5t3 -28.5q0 -29 -10 -55h-504v-556h615q10 -24 10 -53q0 -33 -10 -53h-754zM324 1565l385 241q23 -25 42 -57.5t32 -60.5l-412 -205q-14 16 -26.5 37.5t-20.5 44.5z" />
<glyph unicode="&#xca;" horiz-adv-x="1034" d="M174 0v1384h723q10 -25 10 -53q0 -33 -10 -53h-584v-508h504q4 -8 7 -24.5t3 -28.5q0 -29 -10 -55h-504v-556h615q10 -24 10 -53q0 -33 -10 -53h-754zM244 1532l213 293q18 4 40.5 5t39.5 1q16 0 39.5 -1t42.5 -5l211 -293q-12 -12 -38 -26.5t-46 -22.5l-197 229h-22 l-199 -229q-20 8 -46 22.5t-38 26.5z" />
<glyph unicode="&#xcb;" horiz-adv-x="1034" d="M174 0v1384h723q10 -25 10 -53q0 -33 -10 -53h-584v-508h504q4 -8 7 -24.5t3 -28.5q0 -29 -10 -55h-504v-556h615q10 -24 10 -53q0 -33 -10 -53h-754zM268 1628q0 41 28 69.5t69 28.5t68.5 -28.5t27.5 -69.5t-27.5 -68.5t-68.5 -27.5t-69 27.5t-28 68.5zM633 1628 q0 41 27.5 69.5t68.5 28.5t68.5 -28.5t27.5 -69.5t-27.5 -68.5t-68.5 -27.5t-68.5 27.5t-27.5 68.5z" />
<glyph unicode="&#xcc;" horiz-adv-x="495" d="M-51 1688q12 29 31.5 61.5t41.5 56.5l385 -241q-8 -23 -20 -44.5t-27 -37.5zM178 0v1384q12 4 32.5 7.5t37.5 3.5q16 0 36.5 -3t32.5 -8v-1384q-12 -4 -32.5 -7t-36.5 -3t-37 3t-33 7z" />
<glyph unicode="&#xcd;" horiz-adv-x="495" d="M88 1565l385 241q23 -25 42 -57.5t32 -60.5l-412 -205q-14 16 -26.5 37.5t-20.5 44.5zM178 0v1384q12 4 32.5 7.5t37.5 3.5q16 0 36.5 -3t32.5 -8v-1384q-12 -4 -32.5 -7t-36.5 -3t-37 3t-33 7z" />
<glyph unicode="&#xce;" horiz-adv-x="495" d="M-43 1532l213 293q18 4 40.5 5t39.5 1q16 0 39.5 -1t42.5 -5l211 -293q-12 -12 -38 -26.5t-46 -22.5l-197 229h-22l-199 -229q-20 8 -46 22.5t-38 26.5zM178 0v1384q12 4 32.5 7.5t37.5 3.5q16 0 36.5 -3t32.5 -8v-1384q-12 -4 -32.5 -7t-36.5 -3t-37 3t-33 7z" />
<glyph unicode="&#xcf;" horiz-adv-x="495" d="M-31 1628q0 41 28 69.5t69 28.5t68.5 -28.5t27.5 -69.5t-27.5 -68.5t-68.5 -27.5t-69 27.5t-28 68.5zM178 0v1384q12 4 32.5 7.5t37.5 3.5q16 0 36.5 -3t32.5 -8v-1384q-12 -4 -32.5 -7t-36.5 -3t-37 3t-33 7zM334 1628q0 41 27.5 69.5t68.5 28.5t68.5 -28.5t27.5 -69.5 t-27.5 -68.5t-68.5 -27.5t-68.5 27.5t-27.5 68.5z" />
<glyph unicode="&#xd0;" horiz-adv-x="1308" d="M0 680q0 12 3 28.5t7 24.5h164v651q78 4 173 7.5t181 3.5q340 0 502 -162t162 -520q0 -162 -40 -295t-121 -228.5t-206 -147.5t-295 -52q-37 0 -87 1l-100 2t-96 3t-73 4v627h-164q-10 27 -10 53zM313 102q18 -2 47 -4t59 -3t58.5 -2t48.5 -1q248 0 383 155.5t135 457.5 q0 145 -26.5 255.5t-87 184.5t-158.5 110.5t-244 36.5q-49 0 -108.5 -1t-106.5 -5v-553h248q4 -8 7 -24.5t3 -28.5q0 -27 -10 -53h-248v-525z" />
<glyph unicode="&#xd1;" horiz-adv-x="1361" d="M174 0v1384q12 4 29.5 7.5t32.5 3.5q33 0 57 -11l770 -1140v1140q35 10 63 11q31 0 62 -11v-1384q-8 -4 -24.5 -6t-30.5 -2q-10 0 -24.5 2t-27.5 6l-782 1161v-1161q-25 -10 -63 -10q-35 0 -62 10zM360 1595q39 72 90.5 114t108.5 42q39 0 71.5 -16.5t62.5 -37 t57.5 -36.5t54.5 -16q39 0 70.5 28.5t54.5 73.5q25 -12 42 -27.5t33 -33.5q-37 -70 -88 -113t-110 -43q-35 0 -69 16.5t-64.5 36t-60 35.5t-56.5 16q-35 0 -67.5 -27.5t-57.5 -70.5q-41 27 -72 59z" />
<glyph unicode="&#xd2;" horiz-adv-x="1282" d="M117 692q0 344 132 528.5t392 184.5t392 -184.5t132 -528.5t-132 -528t-392 -184t-392 184t-132 528zM264 692q0 -309 95.5 -458.5t281.5 -149.5t281.5 149.5t95.5 458.5t-95.5 458.5t-281.5 149.5t-281.5 -149.5t-95.5 -458.5zM414 1688q12 29 31.5 61.5t41.5 56.5 l385 -241q-8 -23 -20 -44.5t-27 -37.5z" />
<glyph unicode="&#xd3;" horiz-adv-x="1282" d="M117 692q0 344 132 528.5t392 184.5t392 -184.5t132 -528.5t-132 -528t-392 -184t-392 184t-132 528zM264 692q0 -309 95.5 -458.5t281.5 -149.5t281.5 149.5t95.5 458.5t-95.5 458.5t-281.5 149.5t-281.5 -149.5t-95.5 -458.5zM416 1565l385 241q23 -25 42 -57.5 t32 -60.5l-412 -205q-14 16 -26.5 37.5t-20.5 44.5z" />
<glyph unicode="&#xd4;" horiz-adv-x="1282" d="M117 692q0 344 132 528.5t392 184.5t392 -184.5t132 -528.5t-132 -528t-392 -184t-392 184t-132 528zM264 692q0 -309 95.5 -458.5t281.5 -149.5t281.5 149.5t95.5 458.5t-95.5 458.5t-281.5 149.5t-281.5 -149.5t-95.5 -458.5zM348 1532l213 293q18 4 40.5 5t39.5 1 q16 0 39.5 -1t42.5 -5l211 -293q-12 -12 -38 -26.5t-46 -22.5l-197 229h-22l-199 -229q-20 8 -46 22.5t-38 26.5z" />
<glyph unicode="&#xd5;" horiz-adv-x="1282" d="M117 692q0 344 132 528.5t392 184.5t392 -184.5t132 -528.5t-132 -528t-392 -184t-392 184t-132 528zM264 692q0 -309 95.5 -458.5t281.5 -149.5t281.5 149.5t95.5 458.5t-95.5 458.5t-281.5 149.5t-281.5 -149.5t-95.5 -458.5zM319 1595q39 72 90.5 114t108.5 42 q39 0 71.5 -16.5t62.5 -37t57.5 -36.5t54.5 -16q39 0 70.5 28.5t54.5 73.5q25 -12 42 -27.5t33 -33.5q-37 -70 -88 -113t-110 -43q-35 0 -69 16.5t-64.5 36t-60 35.5t-56.5 16q-35 0 -67.5 -27.5t-57.5 -70.5q-41 27 -72 59z" />
<glyph unicode="&#xd6;" horiz-adv-x="1282" d="M117 692q0 344 132 528.5t392 184.5t392 -184.5t132 -528.5t-132 -528t-392 -184t-392 184t-132 528zM264 692q0 -309 95.5 -458.5t281.5 -149.5t281.5 149.5t95.5 458.5t-95.5 458.5t-281.5 149.5t-281.5 -149.5t-95.5 -458.5zM366 1628q0 41 28 69.5t69 28.5 t68.5 -28.5t27.5 -69.5t-27.5 -68.5t-68.5 -27.5t-69 27.5t-28 68.5zM731 1628q0 41 27.5 69.5t68.5 28.5t68.5 -28.5t27.5 -69.5t-27.5 -68.5t-68.5 -27.5t-68.5 27.5t-27.5 68.5z" />
<glyph unicode="&#xd7;" horiz-adv-x="1044" d="M201 279l252 256l-252 253q10 23 31.5 42.5t39.5 27.5l250 -252l252 252q18 -8 40 -27.5t32 -42.5l-256 -253l256 -256q-10 -23 -31.5 -42.5t-40.5 -27.5l-252 256l-250 -256q-18 8 -39.5 27.5t-31.5 42.5z" />
<glyph unicode="&#xd8;" horiz-adv-x="1282" d="M117 692q0 344 132 528.5t392 184.5q78 0 140.5 -16.5t115.5 -47.5l84 164q6 4 25.5 6t31.5 2q10 0 27.5 -2t28.5 -6l-115 -225q186 -180 186 -588q0 -344 -132 -528t-392 -184q-80 0 -144.5 17t-131.5 58l-74 -145q-8 -4 -27.5 -7t-36.5 -3q-10 0 -26.5 4t-22.5 8 l107 211q-86 92 -127 235.5t-41 333.5zM264 692q0 -156 22.5 -263t63.5 -179l494 987q-35 29 -87 46t-116 17q-186 0 -281.5 -149.5t-95.5 -458.5zM420 162q41 -37 96 -57.5t125 -20.5q186 0 281.5 149.5t95.5 458.5q0 311 -100 465z" />
<glyph unicode="&#xd9;" horiz-adv-x="1267" d="M166 494v890q12 4 31.5 7.5t38.5 3.5q35 0 69 -11v-911q0 -102 18.5 -178t63.5 -125q39 -41 98.5 -64.5t147.5 -23.5t148.5 23.5t99.5 64.5q45 49 63.5 125t18.5 178v911q14 4 34.5 7.5t34.5 3.5q16 0 35.5 -3t34.5 -8v-890q0 -137 -27.5 -233.5t-93.5 -162.5 q-57 -57 -143 -87.5t-205 -30.5t-204 30.5t-142 87.5q-66 66 -93.5 162t-27.5 234zM396 1688q12 29 31.5 61.5t41.5 56.5l385 -241q-8 -23 -20 -44.5t-27 -37.5z" />
<glyph unicode="&#xda;" horiz-adv-x="1267" d="M166 494v890q12 4 31.5 7.5t38.5 3.5q35 0 69 -11v-911q0 -102 18.5 -178t63.5 -125q39 -41 98.5 -64.5t147.5 -23.5t148.5 23.5t99.5 64.5q45 49 63.5 125t18.5 178v911q14 4 34.5 7.5t34.5 3.5q16 0 35.5 -3t34.5 -8v-890q0 -137 -27.5 -233.5t-93.5 -162.5 q-57 -57 -143 -87.5t-205 -30.5t-204 30.5t-142 87.5q-66 66 -93.5 162t-27.5 234zM406 1565l385 241q23 -25 42 -57.5t32 -60.5l-412 -205q-14 16 -26.5 37.5t-20.5 44.5z" />
<glyph unicode="&#xdb;" horiz-adv-x="1267" d="M166 494v890q12 4 31.5 7.5t38.5 3.5q35 0 69 -11v-911q0 -102 18.5 -178t63.5 -125q39 -41 98.5 -64.5t147.5 -23.5t148.5 23.5t99.5 64.5q45 49 63.5 125t18.5 178v911q14 4 34.5 7.5t34.5 3.5q16 0 35.5 -3t34.5 -8v-890q0 -137 -27.5 -233.5t-93.5 -162.5 q-57 -57 -143 -87.5t-205 -30.5t-204 30.5t-142 87.5q-66 66 -93.5 162t-27.5 234zM342 1532l213 293q18 4 40.5 5t39.5 1q16 0 39.5 -1t42.5 -5l211 -293q-12 -12 -38 -26.5t-46 -22.5l-197 229h-22l-199 -229q-20 8 -46 22.5t-38 26.5z" />
<glyph unicode="&#xdc;" horiz-adv-x="1267" d="M166 494v890q12 4 31.5 7.5t38.5 3.5q35 0 69 -11v-911q0 -102 18.5 -178t63.5 -125q39 -41 98.5 -64.5t147.5 -23.5t148.5 23.5t99.5 64.5q45 49 63.5 125t18.5 178v911q14 4 34.5 7.5t34.5 3.5q16 0 35.5 -3t34.5 -8v-890q0 -137 -27.5 -233.5t-93.5 -162.5 q-57 -57 -143 -87.5t-205 -30.5t-204 30.5t-142 87.5q-66 66 -93.5 162t-27.5 234zM356 1628q0 41 28 69.5t69 28.5t68.5 -28.5t27.5 -69.5t-27.5 -68.5t-68.5 -27.5t-69 27.5t-28 68.5zM721 1628q0 41 27.5 69.5t68.5 28.5t68.5 -28.5t27.5 -69.5t-27.5 -68.5t-68.5 -27.5 t-68.5 27.5t-27.5 68.5z" />
<glyph unicode="&#xdd;" horiz-adv-x="1015" d="M41 1382q12 4 35.5 7.5t34.5 3.5q14 0 35.5 -3.5t31.5 -7.5q4 -59 19.5 -116.5t35.5 -98.5l277 -555l272 553q27 53 42.5 106.5t17.5 112.5q10 4 31.5 7.5t35.5 3.5q16 0 36 -3.5t30 -7.5q-2 -63 -21.5 -128.5t-54.5 -135.5l-321 -631v-489q-12 -4 -33 -7t-37 -3t-36.5 3 t-33.5 7v494l-319 628q-33 66 -53.5 127.5t-24.5 132.5zM338 1565l385 241q23 -25 42 -57.5t32 -60.5l-412 -205q-14 16 -26.5 37.5t-20.5 44.5z" />
<glyph unicode="&#xde;" horiz-adv-x="1067" d="M174 0v1384q12 4 31.5 7.5t36.5 3.5q16 0 37.5 -3t33.5 -8v-241q37 2 86.5 3t124.5 1q104 0 191.5 -20.5t151 -67.5t99 -124t35.5 -187q0 -223 -121.5 -334t-342.5 -111h-224v-303q-12 -4 -33.5 -7t-37.5 -3t-36 3t-32 7zM313 408h195q82 0 146.5 17t108.5 57t67.5 103.5 t23.5 157.5q0 92 -24.5 150.5t-68.5 92.5t-105.5 46t-133.5 12q-35 0 -97.5 -1t-111.5 -5v-630z" />
<glyph unicode="&#xdf;" horiz-adv-x="1124" d="M156 -242v1297q0 82 15 166t57 149.5t118 107.5t199 42q82 0 151.5 -20.5t120.5 -63.5t80 -113t29 -168q0 -127 -49.5 -209t-165.5 -117v-4q150 -14 236.5 -106.5t86.5 -276.5q0 -135 -35.5 -225t-100 -142t-155 -73.5t-198.5 -21.5h-109q-8 18 -8 47q0 10 2 27.5t6 21.5 h101q203 0 282.5 90t79.5 272q0 98 -26.5 162t-72.5 101.5t-110.5 52t-138.5 14.5h-74q-4 8 -7 21.5t-3 23.5q0 12 3 28.5t7 20.5h31q61 0 113.5 12.5t89.5 45t58.5 89t21.5 142.5q0 125 -56.5 196.5t-183.5 71.5q-74 0 -124 -25.5t-81 -69.5t-44 -102.5t-13 -123.5v-1340 q-12 -4 -30.5 -7t-39.5 -3q-14 0 -32.5 3t-30.5 7z" />
<glyph unicode="&#xe0;" horiz-adv-x="1011" d="M84 305q0 94 36 163t95 112q68 47 154 65.5t182 18.5q104 0 184 -13v60q0 154 -63.5 213t-192.5 59q-72 0 -152.5 -12.5t-136.5 -26.5q-8 20 -8 53q0 27 11 47q66 20 147.5 31.5t155.5 11.5q184 0 278 -86t94 -274v-465v-122.5t4 -139.5q-25 -10 -55 -10q-29 0 -55 10 q-4 25 -7 55.5t-5 59.5h-2q-53 -66 -137.5 -100.5t-176.5 -34.5q-72 0 -135 20t-111.5 60t-76 101.5t-27.5 143.5zM223 307q0 -113 64.5 -167t165.5 -54q84 0 162.5 37t119.5 100v328q-90 12 -174 12q-76 0 -140.5 -15.5t-111.5 -49.5q-86 -63 -86 -191zM277 1438 q12 29 31.5 61.5t41.5 56.5l385 -241q-8 -23 -20 -44.5t-27 -37.5z" />
<glyph unicode="&#xe1;" horiz-adv-x="1011" d="M84 305q0 94 36 163t95 112q68 47 154 65.5t182 18.5q104 0 184 -13v60q0 154 -63.5 213t-192.5 59q-72 0 -152.5 -12.5t-136.5 -26.5q-8 20 -8 53q0 27 11 47q66 20 147.5 31.5t155.5 11.5q184 0 278 -86t94 -274v-465v-122.5t4 -139.5q-25 -10 -55 -10q-29 0 -55 10 q-4 25 -7 55.5t-5 59.5h-2q-53 -66 -137.5 -100.5t-176.5 -34.5q-72 0 -135 20t-111.5 60t-76 101.5t-27.5 143.5zM223 307q0 -113 64.5 -167t165.5 -54q84 0 162.5 37t119.5 100v328q-90 12 -174 12q-76 0 -140.5 -15.5t-111.5 -49.5q-86 -63 -86 -191zM293 1315l385 241 q23 -25 42 -57.5t32 -60.5l-412 -205q-14 16 -26.5 37.5t-20.5 44.5z" />
<glyph unicode="&#xe2;" horiz-adv-x="1011" d="M84 305q0 94 36 163t95 112q68 47 154 65.5t182 18.5q104 0 184 -13v60q0 154 -63.5 213t-192.5 59q-72 0 -152.5 -12.5t-136.5 -26.5q-8 20 -8 53q0 27 11 47q66 20 147.5 31.5t155.5 11.5q184 0 278 -86t94 -274v-465v-122.5t4 -139.5q-25 -10 -55 -10q-29 0 -55 10 q-4 25 -7 55.5t-5 59.5h-2q-53 -66 -137.5 -100.5t-176.5 -34.5q-72 0 -135 20t-111.5 60t-76 101.5t-27.5 143.5zM211 1268l213 293q18 4 40.5 5t39.5 1q16 0 39.5 -1t42.5 -5l211 -293q-12 -12 -38 -26.5t-46 -22.5l-197 229h-22l-199 -229q-20 8 -46 22t-38 27zM223 307 q0 -113 64.5 -167t165.5 -54q84 0 162.5 37t119.5 100v328q-90 12 -174 12q-76 0 -140.5 -15.5t-111.5 -49.5q-86 -63 -86 -191z" />
<glyph unicode="&#xe3;" horiz-adv-x="1011" d="M84 305q0 94 36 163t95 112q68 47 154 65.5t182 18.5q104 0 184 -13v60q0 154 -63.5 213t-192.5 59q-72 0 -152.5 -12.5t-136.5 -26.5q-8 20 -8 53q0 27 11 47q66 20 147.5 31.5t155.5 11.5q184 0 278 -86t94 -274v-465v-122.5t4 -139.5q-25 -10 -55 -10q-29 0 -55 10 q-4 25 -7 55.5t-5 59.5h-2q-53 -66 -137.5 -100.5t-176.5 -34.5q-72 0 -135 20t-111.5 60t-76 101.5t-27.5 143.5zM176 1339q39 72 90.5 114t108.5 42q39 0 71.5 -16.5t62.5 -37t57.5 -36.5t54.5 -16q39 0 70.5 28.5t54.5 73.5q25 -12 42 -27.5t33 -33.5q-37 -70 -88 -113 t-110 -43q-35 0 -69 16.5t-64.5 36t-60 35.5t-56.5 16q-35 0 -67.5 -27.5t-57.5 -70.5q-41 27 -72 59zM223 307q0 -113 64.5 -167t165.5 -54q84 0 162.5 37t119.5 100v328q-90 12 -174 12q-76 0 -140.5 -15.5t-111.5 -49.5q-86 -63 -86 -191z" />
<glyph unicode="&#xe4;" horiz-adv-x="1011" d="M84 305q0 94 36 163t95 112q68 47 154 65.5t182 18.5q104 0 184 -13v60q0 154 -63.5 213t-192.5 59q-72 0 -152.5 -12.5t-136.5 -26.5q-8 20 -8 53q0 27 11 47q66 20 147.5 31.5t155.5 11.5q184 0 278 -86t94 -274v-465v-122.5t4 -139.5q-25 -10 -55 -10q-29 0 -55 10 q-4 25 -7 55.5t-5 59.5h-2q-53 -66 -137.5 -100.5t-176.5 -34.5q-72 0 -135 20t-111.5 60t-76 101.5t-27.5 143.5zM223 307q0 -113 64.5 -167t165.5 -54q84 0 162.5 37t119.5 100v328q-90 12 -174 12q-76 0 -140.5 -15.5t-111.5 -49.5q-86 -63 -86 -191zM229 1341 q0 41 28 70t69 29t68.5 -29t27.5 -70t-27.5 -68.5t-68.5 -27.5t-69 27.5t-28 68.5zM594 1341q0 41 27.5 70t68.5 29t68.5 -29t27.5 -70t-27.5 -68.5t-68.5 -27.5t-68.5 27.5t-27.5 68.5z" />
<glyph unicode="&#xe5;" horiz-adv-x="1011" d="M84 305q0 94 36 163t95 112q68 47 154 65.5t182 18.5q104 0 184 -13v60q0 154 -63.5 213t-192.5 59q-72 0 -152.5 -12.5t-136.5 -26.5q-8 20 -8 53q0 27 11 47q66 20 147.5 31.5t155.5 11.5q184 0 278 -86t94 -274v-465v-122.5t4 -139.5q-25 -10 -55 -10q-29 0 -55 10 q-4 25 -7 55.5t-5 59.5h-2q-53 -66 -137.5 -100.5t-176.5 -34.5q-72 0 -135 20t-111.5 60t-76 101.5t-27.5 143.5zM223 307q0 -113 64.5 -167t165.5 -54q84 0 162.5 37t119.5 100v328q-90 12 -174 12q-76 0 -140.5 -15.5t-111.5 -49.5q-86 -63 -86 -191zM332 1405 q0 33 13 62.5t37 53t54.5 37t67.5 13.5q35 0 65.5 -13.5t54 -37t37 -53t13.5 -62.5t-13.5 -62.5t-37 -53t-54 -37t-65.5 -13.5q-37 0 -67.5 13.5t-54.5 37t-37 53t-13 62.5zM422 1405q0 -37 23.5 -61.5t58.5 -24.5q37 0 58.5 24.5t21.5 61.5t-21.5 61.5t-58.5 24.5 q-35 0 -58.5 -24.5t-23.5 -61.5z" />
<glyph unicode="&#xe6;" horiz-adv-x="1640" d="M84 297q0 102 35 171t94 112q68 47 155 65.5t183 18.5q104 0 184 -13v60q0 154 -63.5 213t-192.5 59q-72 0 -152.5 -12.5t-136.5 -26.5q-8 20 -8 53q0 27 11 47q66 20 147.5 31.5t155.5 11.5q88 0 147 -17t97 -45t58.5 -62.5t30.5 -69.5q20 35 52 69.5t75 62.5t98.5 45 t127.5 17q100 0 171.5 -38.5t117 -105t65.5 -157t20 -190.5v-49.5t-2 -48.5h-686q2 -88 26 -164t69 -131.5t114.5 -87t165.5 -31.5q70 0 133.5 8t120.5 23q8 -20 8 -43q0 -29 -10 -54q-59 -18 -130 -28t-134 -10q-135 0 -237.5 45t-159.5 133q-61 -72 -167 -126.5 t-233 -54.5q-72 0 -135 20.5t-111.5 60.5t-76 100.5t-27.5 138.5zM223 307q0 -113 64.5 -168t165.5 -55q47 0 95 14.5t93 37t82 51t63 57.5q-14 33 -24 65.5t-16.5 67.5t-8.5 77t-2 97q-90 12 -174 12q-76 0 -140.5 -15.5t-111.5 -49.5q-86 -63 -86 -191zM868 596h555 q0 70 -7 140.5t-31.5 126t-73.5 90t-135 34.5q-74 0 -130.5 -31.5t-94.5 -86t-58.5 -125t-24.5 -148.5z" />
<glyph unicode="&#xe7;" horiz-adv-x="890" d="M80 520q0 125 31.5 229.5t94 179.5t155 116.5t214.5 41.5q59 0 123 -12t111 -35q8 -23 8 -51q0 -31 -6 -51q-49 20 -109.5 31.5t-117.5 11.5q-100 0 -170 -36t-113 -98.5t-62.5 -145.5t-19.5 -177q0 -92 18.5 -172t61.5 -138t112.5 -92t170.5 -34q53 0 113.5 8t107.5 23 q4 -10 6 -20.5t2 -22.5q0 -33 -10 -58q-45 -18 -109.5 -28t-122.5 -10h-18l-4 -95h35q84 0 133 -40.5t49 -118.5q0 -80 -52.5 -135.5t-140.5 -55.5q-41 0 -79.5 5t-67.5 16q0 18 1 42.5t5 41.5q29 -8 60.5 -12.5t56.5 -4.5q47 0 74.5 23.5t27.5 70.5q0 43 -23.5 63.5 t-82.5 20.5h-92l16 187q-98 14 -172 59t-121 113.5t-70.5 160t-23.5 199.5z" />
<glyph unicode="&#xe8;" horiz-adv-x="987" d="M80 528q0 111 27.5 212.5t84 178t140.5 122.5t196 46q100 0 172 -38.5t117 -105t65.5 -157t20.5 -190.5v-49.5t-2 -48.5h-686q2 -88 25.5 -164t68.5 -131.5t115 -87t166 -31.5q70 0 133 8t121 23q8 -20 8 -43q0 -29 -10 -54q-59 -18 -130 -28t-134 -10 q-123 0 -213.5 35.5t-147.5 97.5q-68 74 -102.5 180t-34.5 235zM215 596h555q0 70 -7 140.5t-31.5 126t-74 90t-135.5 34.5q-74 0 -130 -31.5t-94 -86t-58.5 -125t-24.5 -148.5zM297 1438q12 29 31.5 61.5t41.5 56.5l385 -241q-8 -23 -20 -44.5t-27 -37.5z" />
<glyph unicode="&#xe9;" horiz-adv-x="987" d="M80 528q0 111 27.5 212.5t84 178t140.5 122.5t196 46q100 0 172 -38.5t117 -105t65.5 -157t20.5 -190.5v-49.5t-2 -48.5h-686q2 -88 25.5 -164t68.5 -131.5t115 -87t166 -31.5q70 0 133 8t121 23q8 -20 8 -43q0 -29 -10 -54q-59 -18 -130 -28t-134 -10 q-123 0 -213.5 35.5t-147.5 97.5q-68 74 -102.5 180t-34.5 235zM215 596h555q0 70 -7 140.5t-31.5 126t-74 90t-135.5 34.5q-74 0 -130 -31.5t-94 -86t-58.5 -125t-24.5 -148.5zM324 1315l385 241q23 -25 42 -57.5t32 -60.5l-412 -205q-14 16 -26.5 37.5t-20.5 44.5z" />
<glyph unicode="&#xea;" horiz-adv-x="987" d="M80 528q0 111 27.5 212.5t84 178t140.5 122.5t196 46q100 0 172 -38.5t117 -105t65.5 -157t20.5 -190.5v-49.5t-2 -48.5h-686q2 -88 25.5 -164t68.5 -131.5t115 -87t166 -31.5q70 0 133 8t121 23q8 -20 8 -43q0 -29 -10 -54q-59 -18 -130 -28t-134 -10 q-123 0 -213.5 35.5t-147.5 97.5q-68 74 -102.5 180t-34.5 235zM215 596h555q0 70 -7 140.5t-31.5 126t-74 90t-135.5 34.5q-74 0 -130 -31.5t-94 -86t-58.5 -125t-24.5 -148.5zM234 1268l213 293q18 4 40.5 5t39.5 1q16 0 39.5 -1t42.5 -5l211 -293q-12 -12 -38 -26.5 t-46 -22.5l-197 229h-22l-199 -229q-20 8 -46 22t-38 27z" />
<glyph unicode="&#xeb;" horiz-adv-x="987" d="M80 528q0 111 27.5 212.5t84 178t140.5 122.5t196 46q100 0 172 -38.5t117 -105t65.5 -157t20.5 -190.5v-49.5t-2 -48.5h-686q2 -88 25.5 -164t68.5 -131.5t115 -87t166 -31.5q70 0 133 8t121 23q8 -20 8 -43q0 -29 -10 -54q-59 -18 -130 -28t-134 -10 q-123 0 -213.5 35.5t-147.5 97.5q-68 74 -102.5 180t-34.5 235zM215 596h555q0 70 -7 140.5t-31.5 126t-74 90t-135.5 34.5q-74 0 -130 -31.5t-94 -86t-58.5 -125t-24.5 -148.5zM252 1341q0 41 28 70t69 29t68.5 -29t27.5 -70t-27.5 -68.5t-68.5 -27.5t-69 27.5t-28 68.5z M617 1341q0 41 27.5 70t68.5 29t68.5 -29t27.5 -70t-27.5 -68.5t-68.5 -27.5t-68.5 27.5t-27.5 68.5z" />
<glyph unicode="&#xec;" horiz-adv-x="436" d="M-125 1438q12 29 31.5 61.5t41.5 56.5l385 -241q-8 -23 -20 -44.5t-27 -37.5zM147 0v1067q12 4 30 7t34 3t36.5 -3t33.5 -7v-1067q-31 -10 -68 -10q-35 0 -66 10z" />
<glyph unicode="&#xed;" horiz-adv-x="428" d="M101 1315l385 241q23 -25 42 -57.5t32 -60.5l-412 -205q-14 16 -26.5 37.5t-20.5 44.5zM147 0v1067q12 4 30 7t34 3t36.5 -3t33.5 -7v-1067q-31 -10 -68 -10q-35 0 -66 10z" />
<glyph unicode="&#xee;" horiz-adv-x="428" d="M-78 1268l213 293q18 4 40.5 5t39.5 1q16 0 39.5 -1t42.5 -5l211 -293q-12 -12 -38 -26.5t-46 -22.5l-197 229h-22l-199 -229q-20 8 -46 22t-38 27zM147 0v1067q12 4 30 7t34 3t36.5 -3t33.5 -7v-1067q-31 -10 -68 -10q-35 0 -66 10z" />
<glyph unicode="&#xef;" horiz-adv-x="428" d="M-64 1341q0 41 28 70t69 29t68.5 -29t27.5 -70t-27.5 -68.5t-68.5 -27.5t-69 27.5t-28 68.5zM147 0v1067q12 4 30 7t34 3t36.5 -3t33.5 -7v-1067q-31 -10 -68 -10q-35 0 -66 10zM301 1341q0 41 27.5 70t68.5 29t68.5 -29t27.5 -70t-27.5 -68.5t-68.5 -27.5t-68.5 27.5 t-27.5 68.5z" />
<glyph unicode="&#xf0;" horiz-adv-x="1030" d="M80 487q0 106 27.5 198.5t82 160t131 105.5t175.5 38q86 0 160.5 -32.5t123.5 -88.5q-45 133 -132 243t-210 169l-94 -184q-25 6 -49 18q-16 8 -25.5 14.5t-13.5 10.5l90 178q-49 18 -101 31.5t-102 19.5q0 8 2 23.5t9 38.5l6 18t4 10q53 -4 116.5 -16t118.5 -29l80 160 q25 -6 49 -19q29 -14 39 -24l-78 -154q133 -68 222.5 -165t142.5 -211.5t74.5 -239.5t21.5 -246q0 -113 -27.5 -210t-81 -170t-133 -113.5t-186.5 -40.5q-113 0 -195.5 37.5t-138 105t-82 161t-26.5 203.5zM217 492q0 -74 14.5 -148t49 -132t91 -95t142.5 -37t143.5 37 t92 96t49 133t14.5 146q0 76 -16.5 147.5t-52 127.5t-93 90t-141.5 34q-86 0 -142.5 -37t-90 -95.5t-47 -129t-13.5 -137.5z" />
<glyph unicode="&#xf1;" horiz-adv-x="1091" d="M139 0v1067q10 4 26.5 6t27.5 2q16 0 31.5 -2t25.5 -6l10 -106h2q86 70 177 98t169 28t153 -26.5t120 -79.5q49 -59 63 -138t14 -163v-682q-12 -4 -29.5 -6t-35.5 -2q-33 0 -68 10v649q0 152 -41 228q-27 49 -77 73.5t-129 24.5q-78 0 -162 -36t-144 -83v-856 q-37 -10 -69 -10q-33 0 -64 10zM243 1339q39 72 90.5 114t108.5 42q39 0 71.5 -16.5t62.5 -37t57.5 -36.5t54.5 -16q39 0 70.5 28.5t54.5 73.5q25 -12 42 -27.5t33 -33.5q-37 -70 -88 -113t-110 -43q-35 0 -69 16.5t-64.5 36t-60 35.5t-56.5 16q-35 0 -67.5 -27.5 t-57.5 -70.5q-41 27 -72 59z" />
<glyph unicode="&#xf2;" horiz-adv-x="1040" d="M80 532q0 276 121 415.5t321 139.5q201 0 320 -137t119 -413t-120 -416.5t-321 -140.5t-320.5 138t-119.5 414zM219 535q0 -227 77 -341t224 -114t224 114t77 341q0 453 -299 452q-147 0 -225 -112.5t-78 -339.5zM289 1438q12 29 31.5 61.5t41.5 56.5l385 -241 q-8 -23 -20 -44.5t-27 -37.5z" />
<glyph unicode="&#xf3;" horiz-adv-x="1040" d="M80 532q0 276 121 415.5t321 139.5q201 0 320 -137t119 -413t-120 -416.5t-321 -140.5t-320.5 138t-119.5 414zM219 535q0 -227 77 -341t224 -114t224 114t77 341q0 453 -299 452q-147 0 -225 -112.5t-78 -339.5zM336 1315l385 241q23 -25 42 -57.5t32 -60.5l-412 -205 q-14 16 -26.5 37.5t-20.5 44.5z" />
<glyph unicode="&#xf4;" horiz-adv-x="1040" d="M80 532q0 276 121 415.5t321 139.5q201 0 320 -137t119 -413t-120 -416.5t-321 -140.5t-320.5 138t-119.5 414zM219 535q0 -227 77 -341t224 -114t224 114t77 341q0 453 -299 452q-147 0 -225 -112.5t-78 -339.5zM232 1268l213 293q18 4 40.5 5t39.5 1q16 0 39.5 -1 t42.5 -5l211 -293q-12 -12 -38 -26.5t-46 -22.5l-197 229h-22l-199 -229q-20 8 -46 22t-38 27z" />
<glyph unicode="&#xf5;" horiz-adv-x="1040" d="M80 532q0 276 121 415.5t321 139.5q201 0 320 -137t119 -413t-120 -416.5t-321 -140.5t-320.5 138t-119.5 414zM209 1339q39 72 90.5 114t108.5 42q39 0 71.5 -16.5t62.5 -37t57.5 -36.5t54.5 -16q39 0 70.5 28.5t54.5 73.5q25 -12 42 -27.5t33 -33.5q-37 -70 -88 -113 t-110 -43q-35 0 -69 16.5t-64.5 36t-60 35.5t-56.5 16q-35 0 -67.5 -27.5t-57.5 -70.5q-41 27 -72 59zM219 535q0 -227 77 -341t224 -114t224 114t77 341q0 453 -299 452q-147 0 -225 -112.5t-78 -339.5z" />
<glyph unicode="&#xf6;" horiz-adv-x="1040" d="M80 532q0 276 121 415.5t321 139.5q201 0 320 -137t119 -413t-120 -416.5t-321 -140.5t-320.5 138t-119.5 414zM219 535q0 -227 77 -341t224 -114t224 114t77 341q0 453 -299 452q-147 0 -225 -112.5t-78 -339.5zM250 1341q0 41 28 70t69 29t68.5 -29t27.5 -70 t-27.5 -68.5t-68.5 -27.5t-69 27.5t-28 68.5zM615 1341q0 41 27.5 70t68.5 29t68.5 -29t27.5 -70t-27.5 -68.5t-68.5 -27.5t-68.5 27.5t-27.5 68.5z" />
<glyph unicode="&#xf7;" horiz-adv-x="1044" d="M150 539q0 12 3 26.5t7 24.5h723q4 -10 7 -24.5t3 -26.5t-3 -28.5t-7 -27.5h-723q-4 10 -7 26.5t-3 29.5zM432 213q0 37 26.5 63.5t63.5 26.5t63.5 -26.5t26.5 -63.5t-26.5 -63.5t-63.5 -26.5t-63.5 26.5t-26.5 63.5zM432 858q0 37 26.5 63.5t63.5 26.5t63.5 -26.5 t26.5 -63.5t-26.5 -63.5t-63.5 -26.5t-63.5 26.5t-26.5 63.5z" />
<glyph unicode="&#xf8;" horiz-adv-x="1040" d="M80 532q0 276 121 415.5t321 139.5q117 0 203 -45l57 115q6 4 24.5 6t31.5 2q10 0 26.5 -2t26.5 -6l-84 -168q74 -66 114 -179t40 -273q0 -276 -120 -416.5t-321 -140.5q-115 0 -203 45l-57 -115q-8 -4 -26.5 -7t-34.5 -3q-10 0 -25.5 3t-21.5 7l84 168 q-156 137 -156 454zM219 535q0 -117 18.5 -200t57.5 -140l377 749q-61 43 -150 43q-147 0 -225 -112.5t-78 -339.5zM369 123q63 -43 151 -43q147 0 224 114t77 341q0 115 -17.5 198.5t-55.5 140.5z" />
<glyph unicode="&#xf9;" horiz-adv-x="1058" d="M133 395v672q31 10 66 10q23 0 39 -3t28 -7v-655q0 -74 8.5 -135.5t36 -104.5t79.5 -66.5t138 -23.5q82 0 133.5 23.5t80 66.5t40 104.5t11.5 139.5v651q12 4 31.5 7t35.5 3q35 0 66 -10v-661q0 -233 -98.5 -329.5t-301.5 -96.5q-207 0 -300 95t-93 320zM234 1438 q12 29 31.5 61.5t41.5 56.5l385 -241q-8 -23 -20 -44.5t-27 -37.5z" />
<glyph unicode="&#xfa;" horiz-adv-x="1058" d="M133 395v672q31 10 66 10q23 0 39 -3t28 -7v-655q0 -74 8.5 -135.5t36 -104.5t79.5 -66.5t138 -23.5q82 0 133.5 23.5t80 66.5t40 104.5t11.5 139.5v651q12 4 31.5 7t35.5 3q35 0 66 -10v-661q0 -233 -98.5 -329.5t-301.5 -96.5q-207 0 -300 95t-93 320zM385 1315 l385 241q23 -25 42 -57.5t32 -60.5l-412 -205q-14 16 -26.5 37.5t-20.5 44.5z" />
<glyph unicode="&#xfb;" horiz-adv-x="1058" d="M133 395v672q31 10 66 10q23 0 39 -3t28 -7v-655q0 -74 8.5 -135.5t36 -104.5t79.5 -66.5t138 -23.5q82 0 133.5 23.5t80 66.5t40 104.5t11.5 139.5v651q12 4 31.5 7t35.5 3q35 0 66 -10v-661q0 -233 -98.5 -329.5t-301.5 -96.5q-207 0 -300 95t-93 320zM236 1268 l213 293q18 4 40.5 5t39.5 1q16 0 39.5 -1t42.5 -5l211 -293q-12 -12 -38 -26.5t-46 -22.5l-197 229h-22l-199 -229q-20 8 -46 22t-38 27z" />
<glyph unicode="&#xfc;" horiz-adv-x="1058" d="M133 395v672q31 10 66 10q23 0 39 -3t28 -7v-655q0 -74 8.5 -135.5t36 -104.5t79.5 -66.5t138 -23.5q82 0 133.5 23.5t80 66.5t40 104.5t11.5 139.5v651q12 4 31.5 7t35.5 3q35 0 66 -10v-661q0 -233 -98.5 -329.5t-301.5 -96.5q-207 0 -300 95t-93 320zM250 1341 q0 41 28 70t69 29t68.5 -29t27.5 -70t-27.5 -68.5t-68.5 -27.5t-69 27.5t-28 68.5zM615 1341q0 41 27.5 70t68.5 29t68.5 -29t27.5 -70t-27.5 -68.5t-68.5 -27.5t-68.5 27.5t-27.5 68.5z" />
<glyph unicode="&#xfd;" horiz-adv-x="1073" d="M139 375v692q12 4 29.5 7t34.5 3q18 0 36.5 -3t32.5 -7v-670q0 -74 8.5 -134t36.5 -101q49 -72 166 -72q96 0 180.5 42t137.5 93v842q14 4 32.5 7t36.5 3q16 0 34 -3t30 -7v-889q0 -150 -13.5 -260.5t-66.5 -206.5q-31 -55 -75 -95t-96 -66.5t-107.5 -40t-110.5 -13.5 q-80 0 -138.5 8.5t-107.5 24.5q-4 10 -6 23.5t-2 25.5q0 10 2 25.5t6 25.5q47 -14 103.5 -23t130.5 -9q170 0 259 115.5t89 326.5v72q-78 -70 -163 -100.5t-165 -30.5q-86 0 -152.5 22.5t-109.5 75.5q-47 57 -59.5 135t-12.5 162zM385 1315l385 241q23 -25 42 -57.5 t32 -60.5l-412 -205q-14 16 -26.5 37.5t-20.5 44.5z" />
<glyph unicode="&#xfe;" horiz-adv-x="1067" d="M139 -481v1976q27 10 66 10q23 0 37 -3t30 -7v-530q53 53 133 87.5t170 34.5q98 0 180.5 -39.5t135.5 -117.5q45 -66 70.5 -156t25.5 -203q0 -154 -45 -270.5t-127 -189.5q-59 -53 -146 -82t-177 -29q-63 0 -120 9t-100 26v-516q-16 -4 -30.5 -7.5t-36.5 -3.5 q-39 0 -66 11zM272 139q41 -18 96.5 -28.5t108.5 -10.5q166 0 268.5 112.5t102.5 352.5q0 190 -73 302t-214 112q-82 0 -158.5 -34t-130.5 -101v-705z" />
<glyph unicode="&#xff;" horiz-adv-x="1073" d="M139 375v692q12 4 29.5 7t34.5 3q18 0 36.5 -3t32.5 -7v-670q0 -74 8.5 -134t36.5 -101q49 -72 166 -72q96 0 180.5 42t137.5 93v842q14 4 32.5 7t36.5 3q16 0 34 -3t30 -7v-889q0 -150 -13.5 -260.5t-66.5 -206.5q-31 -55 -75 -95t-96 -66.5t-107.5 -40t-110.5 -13.5 q-80 0 -138.5 8.5t-107.5 24.5q-4 10 -6 23.5t-2 25.5q0 10 2 25.5t6 25.5q47 -14 103.5 -23t130.5 -9q170 0 259 115.5t89 326.5v72q-78 -70 -163 -100.5t-165 -30.5q-86 0 -152.5 22.5t-109.5 75.5q-47 57 -59.5 135t-12.5 162zM258 1341q0 41 28 70t69 29t68.5 -29 t27.5 -70t-27.5 -68.5t-68.5 -27.5t-69 27.5t-28 68.5zM623 1341q0 41 27.5 70t68.5 29t68.5 -29t27.5 -70t-27.5 -68.5t-68.5 -27.5t-68.5 27.5t-27.5 68.5z" />
<glyph unicode="&#x152;" horiz-adv-x="1779" d="M117 690q0 147 27.5 277.5t90 227.5t165 153.5t251.5 56.5q45 0 83 -3t80 -7t91 -7.5t115 -3.5h622q10 -25 11 -53q0 -33 -11 -53h-583v-508h504q4 -8 7 -24.5t3 -28.5q0 -29 -10 -55h-504v-556h614q10 -25 10 -53q0 -33 -10 -53h-653q-68 0 -114 -3t-85 -7t-79 -7 t-95 -3q-147 0 -248.5 54t-164 149.5t-90 225.5t-27.5 281zM264 694q0 -104 13.5 -212.5t55.5 -196.5t117.5 -144.5t200.5 -56.5q66 0 125.5 9t143.5 13v1172q-43 2 -78 5t-66 7t-60.5 7t-64.5 3q-123 0 -198.5 -56t-117.5 -143t-56.5 -194.5t-14.5 -212.5z" />
<glyph unicode="&#x153;" horiz-adv-x="1730" d="M80 532q0 276 121 415.5t321 139.5q129 0 226.5 -56t150.5 -171q53 102 146.5 164.5t226.5 62.5q100 0 172 -38.5t117 -105t65.5 -157t20.5 -190.5v-49.5t-2 -48.5h-687q2 -88 26 -164t69 -131.5t114.5 -87t165.5 -31.5q70 0 133.5 8t120.5 23q8 -20 8 -43 q0 -12 -3 -26.5t-7 -25.5q-66 -23 -135.5 -31.5t-144.5 -8.5q-111 0 -199 35.5t-145 97.5q-39 43 -66 92q-55 -113 -150.5 -169t-224.5 -56q-201 0 -320.5 138t-119.5 414zM219 535q0 -227 77 -341t224 -114t225 114t78 341t-76.5 339.5t-224.5 112.5q-147 0 -225 -112.5 t-78 -339.5zM958 596h555q0 70 -7 140.5t-31.5 126t-73.5 90t-135 34.5q-74 0 -130.5 -31.5t-94 -86t-58 -125t-25.5 -148.5z" />
<glyph unicode="&#x178;" horiz-adv-x="1015" d="M41 1382q12 4 35.5 7.5t34.5 3.5q14 0 35.5 -3.5t31.5 -7.5q4 -59 19.5 -116.5t35.5 -98.5l277 -555l272 553q27 53 42.5 106.5t17.5 112.5q10 4 31.5 7.5t35.5 3.5q16 0 36 -3.5t30 -7.5q-2 -63 -21.5 -128.5t-54.5 -135.5l-321 -631v-489q-12 -4 -33 -7t-37 -3t-36.5 3 t-33.5 7v494l-319 628q-33 66 -53.5 127.5t-24.5 132.5zM227 1628q0 41 28 69.5t69 28.5t68.5 -28.5t27.5 -69.5t-27.5 -68.5t-68.5 -27.5t-69 27.5t-28 68.5zM592 1628q0 41 27.5 69.5t68.5 28.5t68.5 -28.5t27.5 -69.5t-27.5 -68.5t-68.5 -27.5t-68.5 27.5t-27.5 68.5z " />
<glyph unicode="&#x2c6;" horiz-adv-x="665" d="M39 1268l213 293q18 4 40.5 5t39.5 1q16 0 39.5 -1t42.5 -5l211 -293q-12 -12 -38 -26.5t-46 -22.5l-197 229h-22l-199 -229q-20 8 -46 22t-38 27z" />
<glyph unicode="&#x2dc;" horiz-adv-x="591" d="M-27 1339q39 72 90.5 114t108.5 42q39 0 71.5 -16.5t62.5 -37t57.5 -36.5t54.5 -16q39 0 70.5 28.5t54.5 73.5q25 -12 42 -27.5t33 -33.5q-37 -70 -88 -113t-110 -43q-35 0 -69 16.5t-64.5 36t-60 35.5t-56.5 16q-35 0 -67.5 -27.5t-57.5 -70.5q-41 27 -72 59z" />
<glyph unicode="&#x2000;" horiz-adv-x="918" />
<glyph unicode="&#x2001;" horiz-adv-x="1837" />
<glyph unicode="&#x2002;" horiz-adv-x="918" />
<glyph unicode="&#x2003;" horiz-adv-x="1837" />
<glyph unicode="&#x2004;" horiz-adv-x="612" />
<glyph unicode="&#x2005;" horiz-adv-x="459" />
<glyph unicode="&#x2006;" horiz-adv-x="306" />
<glyph unicode="&#x2007;" horiz-adv-x="306" />
<glyph unicode="&#x2008;" horiz-adv-x="229" />
<glyph unicode="&#x2009;" horiz-adv-x="367" />
<glyph unicode="&#x200a;" horiz-adv-x="102" />
<glyph unicode="&#x2010;" horiz-adv-x="583" d="M82 535q0 12 3 28.5t7 24.5h400q4 -8 7 -24.5t3 -28.5q0 -29 -10 -56h-400q-10 27 -10 56z" />
<glyph unicode="&#x2011;" horiz-adv-x="583" d="M82 535q0 12 3 28.5t7 24.5h400q4 -8 7 -24.5t3 -28.5q0 -29 -10 -56h-400q-10 27 -10 56z" />
<glyph unicode="&#x2012;" horiz-adv-x="583" d="M82 535q0 12 3 28.5t7 24.5h400q4 -8 7 -24.5t3 -28.5q0 -29 -10 -56h-400q-10 27 -10 56z" />
<glyph unicode="&#x2013;" horiz-adv-x="1024" d="M31 535q0 12 3 28.5t7 24.5h942q4 -8 7 -24.5t3 -28.5q0 -29 -10 -56h-942q-10 27 -10 56z" />
<glyph unicode="&#x2014;" horiz-adv-x="2048" d="M31 535q0 12 3 28.5t7 24.5h1966q4 -8 7 -24.5t3 -28.5q0 -29 -10 -56h-1966q-10 27 -10 56z" />
<glyph unicode="&#x2018;" horiz-adv-x="333" d="M47 1081q0 102 55.5 207t147.5 187q25 -14 43 -43q-51 -59 -84 -131t-39 -148q47 -10 79 -41t32 -80q0 -43 -29 -73.5t-72 -30.5q-63 0 -98 42t-35 111z" />
<glyph unicode="&#x2019;" horiz-adv-x="333" d="M41 970q51 59 84 131t39 148q-47 10 -79 41t-32 80q0 43 29 73.5t72 30.5q63 0 98 -42t35 -111q0 -102 -55.5 -207t-147.5 -187q-25 14 -43 43z" />
<glyph unicode="&#x201a;" horiz-adv-x="333" d="M41 -340q51 59 84 131t39 148q-47 10 -79 41t-32 80q0 43 29 73.5t72 30.5q63 0 98 -42t35 -111q0 -102 -55.5 -207t-147.5 -187q-25 14 -43 43z" />
<glyph unicode="&#x201c;" horiz-adv-x="677" d="M47 1081q0 102 55.5 207t147.5 187q25 -14 43 -43q-51 -59 -84 -131t-39 -148q47 -10 79 -41t32 -80q0 -43 -29 -73.5t-72 -30.5q-63 0 -98 42t-35 111zM391 1081q0 102 55.5 207t147.5 187q25 -14 43 -43q-51 -59 -84 -131t-39 -148q47 -10 79 -41t32 -80 q0 -43 -29 -73.5t-72 -30.5q-63 0 -98 42t-35 111z" />
<glyph unicode="&#x201d;" horiz-adv-x="677" d="M41 970q51 59 84 131t39 148q-47 10 -79 41t-32 80q0 43 29 73.5t72 30.5q63 0 98 -42t35 -111q0 -102 -55.5 -207t-147.5 -187q-25 14 -43 43zM385 970q51 59 84 131t39 148q-47 10 -79 41t-32 80q0 43 29 73.5t72 30.5q63 0 98 -42t35 -111q0 -102 -55.5 -207 t-147.5 -187q-25 14 -43 43z" />
<glyph unicode="&#x201e;" horiz-adv-x="677" d="M41 -340q51 59 84 131t39 148q-47 10 -79 41t-32 80q0 43 29 73.5t72 30.5q63 0 98 -42t35 -111q0 -102 -55.5 -207t-147.5 -187q-25 14 -43 43zM385 -340q51 59 84 131t39 148q-47 10 -79 41t-32 80q0 43 29 73.5t72 30.5q63 0 98 -42t35 -111q0 -102 -55.5 -207 t-147.5 -187q-25 14 -43 43z" />
<glyph unicode="&#x2022;" horiz-adv-x="1044" d="M264 598q0 51 19.5 97t54.5 81t80 54.5t98 19.5q51 0 97 -19.5t81 -54.5t54.5 -81t19.5 -97q0 -53 -19.5 -98t-54.5 -80t-81 -54.5t-97 -19.5q-53 0 -98 19.5t-80 54.5t-54.5 80t-19.5 98z" />
<glyph unicode="&#x2026;" horiz-adv-x="1146" d="M111 76q0 41 27.5 68.5t68.5 27.5t68.5 -27.5t27.5 -68.5t-27.5 -68.5t-68.5 -27.5t-68.5 27.5t-27.5 68.5zM477 76q0 41 27.5 68.5t68.5 27.5t69 -27.5t28 -68.5t-28 -68.5t-69 -27.5t-68.5 27.5t-27.5 68.5zM844 76q0 41 27.5 68.5t68.5 27.5t68.5 -27.5t27.5 -68.5 t-27.5 -68.5t-68.5 -27.5t-68.5 27.5t-27.5 68.5z" />
<glyph unicode="&#x202f;" horiz-adv-x="367" />
<glyph unicode="&#x2039;" horiz-adv-x="530" d="M68 477l325 357q41 -18 76 -56l-236 -301l236 -305q-33 -41 -76 -55z" />
<glyph unicode="&#x203a;" horiz-adv-x="530" d="M61 172l236 305l-236 301q14 18 36 33.5t40 22.5l326 -357l-326 -360q-20 8 -40.5 23.5t-35.5 31.5z" />
<glyph unicode="&#x205f;" horiz-adv-x="459" />
<glyph unicode="&#x20ac;" d="M27 547q0 12 3 26.5t7 24.5h145q-2 16 -2 35.5v38.5v42t2 38h-145q-4 10 -7 26.5t-3 28.5t3 26.5t7 24.5h153q14 111 54.5 209t107 174t159.5 120t214 44q84 0 161 -17.5t120 -39.5q8 -23 8 -56q0 -10 -1 -24.5t-5 -24.5q-47 16 -116 32.5t-138 16.5q-104 0 -179 -36.5 t-125.5 -97t-77 -138.5t-34.5 -162h528q4 -10 7.5 -24.5t3.5 -26.5t-3.5 -28.5t-7.5 -26.5h-536q-2 -18 -2 -40v-40v-38t2 -36h536q4 -10 7.5 -24.5t3.5 -26.5t-3.5 -28.5t-7.5 -26.5h-528q6 -70 28.5 -141.5t67.5 -129t116 -93.5t173 -36q82 0 157.5 17.5t125.5 35.5 q4 -10 5 -23t1 -26q0 -16 -1 -32.5t-5 -26.5q-49 -20 -129 -38.5t-170 -18.5q-123 0 -214.5 38.5t-154 106.5t-99 162t-49.5 205h-153q-4 10 -7 26.5t-3 28.5z" />
<glyph unicode="&#x2122;" horiz-adv-x="1196" d="M0 1341q0 12 2 24.5t4 18.5h438q6 -16 7 -43q0 -12 -1 -26.5t-6 -22.5h-163v-463q-12 -4 -30 -5t-26 -1t-25.5 1t-27.5 5v463h-166q-4 8 -5 22.5t-1 26.5zM514 831l21 551q12 4 34.5 6.5t26.5 2.5q8 0 28.5 -2.5t30.5 -6.5l170 -436l172 438q12 4 28.5 5.5t29.5 1.5 q12 0 26.5 -2.5t30.5 -6.5l18 -553q-10 -4 -27.5 -5t-25.5 -1t-23.5 1t-25.5 5l-4 388l-156 -390q-8 -2 -24.5 -3t-20.5 -1t-17 1t-24 3l-155 385l-11 -383q-23 -6 -43 -6q-6 0 -27.5 2t-31.5 6z" />
<glyph unicode="&#x25fc;" horiz-adv-x="1075" d="M0 0v1075h1075v-1075h-1075z" />
</font>
</defs>
</svg>
